<svg width="170" height="20" viewBox="0 0 170 20" fill="none" xmlns="http://www.w3.org/2000/svg">
<path d="M5.808 19H8.976V4.768H14.448V2.2H0.312V4.768H5.808V19ZM21.5771 16.528H21.6251V17.032C21.6251 18.28 22.4171 19 23.8571 19H25.9211V16.528H25.4171C24.7691 16.528 24.5291 16.288 24.5291 15.64V9.976C24.5291 7.312 22.9451 5.392 18.9371 5.392C14.9771 5.392 13.1291 7.24 12.9371 10.072H16.1051C16.2011 8.608 17.2811 7.792 18.9851 7.792C20.4011 7.792 21.5051 8.368 21.5051 9.568C21.5051 10.48 20.9051 11.008 19.5851 11.008H17.4491C14.8331 11.008 12.4331 12.16 12.4331 15.184C12.4331 17.944 14.4251 19.408 16.9931 19.408C19.0331 19.408 20.7371 18.496 21.5771 16.528ZM15.6731 15.064C15.6731 14.032 16.3451 13.24 17.9291 13.192L18.9131 13.144C20.2811 13.096 21.0491 12.688 21.4571 11.872H21.5051V13.096C21.5051 15.832 19.7291 16.96 17.9291 16.96C16.3451 16.96 15.6731 16.096 15.6731 15.064ZM27.4455 19H30.4695V0.256H27.4455V19ZM38.8701 19.408C42.1341 19.408 44.4381 17.584 45.0141 14.944H41.8941C41.4861 16.216 40.3821 17.008 38.9181 17.008C36.9021 17.008 35.6301 15.52 35.5341 13.264H45.1821V11.896C45.1821 7.648 42.4701 5.392 38.8461 5.392C35.0301 5.392 32.3181 8.008 32.3181 12.4C32.3181 16.768 34.9581 19.408 38.8701 19.408ZM35.5581 11.08C35.7501 9.232 36.8301 7.792 38.9181 7.792C40.9821 7.792 42.1341 9.16 42.1341 11.08H35.5581ZM47.0046 19H50.0286V11.44C50.0286 8.8 51.5166 7.816 53.0286 7.816C54.5166 7.816 55.5246 8.776 55.5246 11.08V19H58.5486V10.72C58.5486 7.216 56.7726 5.392 54.0846 5.392C52.2606 5.392 50.8206 6.256 50.0286 7.816H49.9806V5.8H47.0046V19ZM65.655 19H69.159V16.528H66.687C65.679 16.528 65.103 16.096 65.103 14.968V8.272H69.087V5.8H65.103V2.2H62.055V5.8H59.511V8.272H62.055V15.424C62.055 17.824 63.303 19 65.655 19ZM75.6763 19H78.8443V12.664H83.2363C86.5963 12.664 89.0203 10.792 89.0203 7.456C89.0203 4.144 86.5963 2.2 83.2363 2.2H75.6763V19ZM78.8443 10.096V4.768H82.5643C84.5323 4.768 85.7563 5.824 85.7563 7.456C85.7563 9.088 84.5323 10.096 82.5643 10.096H78.8443ZM90.7164 19H93.7404V11.416C93.7404 9.256 94.5804 8.272 96.4044 8.272H98.2284V5.8H96.9564C95.2044 5.8 94.3644 6.568 93.7404 7.888H93.6924V5.8H90.7164V19ZM105.097 19.408C108.817 19.408 111.793 16.912 111.793 12.4C111.793 7.888 108.817 5.392 105.097 5.392C101.377 5.392 98.4015 7.888 98.4015 12.4C98.4015 16.912 101.377 19.408 105.097 19.408ZM101.641 12.4C101.641 9.352 103.009 7.792 105.097 7.792C107.185 7.792 108.553 9.352 108.553 12.4C108.553 15.448 107.185 17.008 105.097 17.008C103.009 17.008 101.641 15.448 101.641 12.4ZM118.221 19H121.725V16.528H119.253C118.245 16.528 117.669 16.096 117.669 14.968V8.272H121.653V5.8H117.669V2.2H114.621V5.8H112.077V8.272H114.621V15.424C114.621 17.824 115.869 19 118.221 19ZM128.828 19.408C132.548 19.408 135.524 16.912 135.524 12.4C135.524 7.888 132.548 5.392 128.828 5.392C125.108 5.392 122.132 7.888 122.132 12.4C122.132 16.912 125.108 19.408 128.828 19.408ZM125.372 12.4C125.372 9.352 126.74 7.792 128.828 7.792C130.916 7.792 132.284 9.352 132.284 12.4C132.284 15.448 130.916 17.008 128.828 17.008C126.74 17.008 125.372 15.448 125.372 12.4ZM143.495 19.408C147.167 19.408 149.303 17.056 149.687 14.224H146.567C146.399 15.472 145.439 17.008 143.495 17.008C141.407 17.008 140.039 15.256 140.039 12.4C140.039 9.712 141.215 7.792 143.495 7.792C145.487 7.792 146.447 9.208 146.567 10.84H149.687C149.399 7.744 147.287 5.392 143.495 5.392C139.295 5.392 136.799 8.152 136.799 12.4C136.799 16.648 139.487 19.408 143.495 19.408ZM157.458 19.408C161.178 19.408 164.154 16.912 164.154 12.4C164.154 7.888 161.178 5.392 157.458 5.392C153.738 5.392 150.762 7.888 150.762 12.4C150.762 16.912 153.738 19.408 157.458 19.408ZM154.002 12.4C154.002 9.352 155.37 7.792 157.458 7.792C159.546 7.792 160.914 9.352 160.914 12.4C160.914 15.448 159.546 17.008 157.458 17.008C155.37 17.008 154.002 15.448 154.002 12.4ZM166.011 19H169.035V0.256H166.011V19Z" fill="#7857ED"/>
</svg>
