<svg id="Celo_Logotype" data-name="Celo Logotype" width="124" height="70" viewBox="0 0 62 35" fill="none" xmlns="http://www.w3.org/2000/svg">
<path d="M54.7263 22.2183C57.5593 22.2183 59.8307 19.9024 59.8307 17.0381C59.8307 14.1738 57.5593 11.8773 54.7263 11.8773C51.8933 11.8773 49.6218 14.1932 49.6218 17.0381C49.6282 19.8766 51.9188 22.2183 54.7263 22.2183ZM47.7715 10H61.7066V24.0891H47.7715V10Z" fill="black"/>
<path fill-rule="evenodd" clip-rule="evenodd" d="M27.4315 19.1734C26.6148 20.9668 24.841 22.2183 22.7673 22.2183C20.0173 22.2183 17.765 19.9991 17.6629 17.2381H29.7413V10H15.8125V24.0891H29.7476V19.1734H27.4315ZM17.8862 15.5027H27.6165C26.9019 13.103 24.9877 11.8773 22.7737 11.8773C20.5596 11.8773 18.4987 13.1868 17.8862 15.5027Z" fill="black"/>
<path d="M13.9351 10H0V24.0891H13.9351V19.1734H11.6254C10.8278 20.9668 9.03487 22.2183 6.98033 22.2183C4.14736 22.2183 1.85674 19.883 1.85674 17.0381C1.85674 14.1932 4.14736 11.8773 6.98033 11.8773C9.07316 11.8773 10.8661 13.1675 11.6637 14.9996H13.9351V10Z" fill="black"/>
<path d="M46.0305 19.1734H43.7207C43.0252 21.0248 41.1494 22.1989 39.0182 22.1989C36.2682 22.1989 33.9521 20.1862 33.9521 17.0381V10H31.5977V24.0891H46.0305V19.1734Z" fill="black"/>
</svg>
