<svg width="111" height="37" viewBox="0 0 111 37" fill="none" xmlns="http://www.w3.org/2000/svg">
<path d="M18.2221 0.120123C19.8733 0.120123 21.2281 1.49761 21.2281 3.17641C21.2281 4.85522 19.8733 6.18966 18.2221 6.18966C16.5709 6.18966 15.2161 4.81218 15.2161 3.13337C15.2161 1.45456 16.5709 0.0770765 18.2221 0.120123ZM20.0426 12.044C19.1535 10.6665 17.2907 10.6665 16.3592 12.044C14.2847 15.1863 11.2363 20.2658 11.2363 23.0208C11.2363 27.1532 14.327 30.5109 18.1374 30.5109C21.9478 30.5109 25.0808 27.1963 25.0808 23.0638C25.0808 20.2658 22.0748 15.1863 20.0426 12.044Z" fill="#FFCC00"/>
<path d="M26.4359 2.48806C25.6739 2.10064 24.7848 2.40196 24.4037 3.13375C24.0227 3.86554 24.319 4.81256 25.0388 5.15693C30.077 7.78276 33.21 12.9914 33.21 18.7165C33.21 21.2563 32.5749 23.6669 31.4318 25.7761C31.6012 24.9583 31.6859 24.1404 31.6859 23.2794C31.6859 19.9649 30.5004 16.7364 28.3412 14.2397C27.7908 13.594 26.8593 13.551 26.2243 14.1106C25.5892 14.6702 25.5468 15.6172 26.0972 16.2629C27.7908 18.2 28.7222 20.6967 28.7222 23.2794C28.6799 28.9616 24.2344 33.5675 18.6881 33.8258C18.5187 33.8258 18.3071 33.8258 18.1377 33.8258C17.9684 33.8258 17.7567 33.8258 17.5873 33.8258C12.041 33.5245 7.59555 28.8755 7.63789 23.1934C7.63789 20.7397 8.44231 18.4583 9.96648 16.5642C10.4745 15.9185 10.3899 14.9715 9.75479 14.4119C9.11972 13.8953 8.14595 13.9814 7.63789 14.6271C5.64801 17.0808 4.58956 20.094 4.58956 23.1934C4.58956 24.0543 4.67424 24.9152 4.80125 25.7331C3.70046 23.6238 3.06539 21.2132 3.06539 18.6735C3.10773 12.9483 6.24074 7.78276 11.3213 5.19998C12.0834 4.81256 12.3797 3.90859 11.9987 3.1768C11.6177 2.44501 10.7286 2.14369 9.96648 2.48806C3.91215 5.54435 0.101736 11.743 0.101736 18.6304C0.0593982 28.402 7.76491 36.4516 17.418 36.8391C17.6296 36.8391 17.8837 36.8391 18.0954 36.8821C28.0871 36.9251 36.216 28.7894 36.2584 18.7596C36.2584 11.8722 32.5326 5.67349 26.4359 2.48806Z" fill="#25E899"/>
<path d="M47.2236 18.3294L52.2194 13.1208H54.8021L49.0018 19.0181L54.8444 26.1638H52.2618L47.6469 20.3526L47.2659 20.74V26.1208H45.3184V13.1208H47.2659V18.3294H47.2236ZM64.4551 14.9718H59.3322V18.1141H64.3281V19.9651H59.3322V24.3128H64.4551V26.1638H57.3847V13.1208H64.4551V14.9718ZM72.203 20.6108L76.1827 26.1638H73.8118L70.1284 20.8261H69.7897V26.1638H67.8422V13.1208H70.1284C71.8219 13.1208 73.0497 13.4651 73.8118 14.1108C74.6586 14.8426 75.0396 15.7896 75.0396 16.9519C75.0396 17.8559 74.7856 18.6738 74.2775 19.3194C73.7695 19.9651 73.0497 20.3956 72.203 20.6108ZM69.7897 19.1042H70.4248C72.2453 19.1042 73.1767 18.3724 73.1767 16.9519C73.1767 15.6175 72.2876 14.9287 70.5094 14.9287H69.832V19.1042H69.7897ZM78.977 26.1638V12.2168L88.3337 22.1605V13.1208H90.2813V26.9387L80.9246 16.9949V26.1208L78.977 26.1638ZM101.247 14.9718H96.1239V18.1141H101.12V19.9651H96.1239V24.3128H101.247V26.1638H94.1764V13.1208H101.247V14.9718ZM106.581 13.1208V24.3128H110.349V26.1638H104.634V13.1208H106.581Z" fill="black"/>
</svg>
