<svg width="895" height="360" viewBox="0 0 895 360" fill="none" xmlns="http://www.w3.org/2000/svg">
<path d="M681.013 153.469V0H0V206.531H262.648V360H895V153.469H681.013Z" fill="#161616"/>
<path d="M198.051 36.5111H150.606L118.612 170.507H145.01L146.47 164.057C149.39 151.034 160.947 144.584 174.207 144.584C187.467 144.584 199.024 151.156 201.944 164.057L203.404 170.507H229.802L198.051 36.5111ZM191.603 124.503L188.319 123.286C183.818 121.46 179.073 120.487 174.45 120.487C169.706 120.487 164.961 121.46 160.582 123.286L157.297 124.625L154.378 125.963L154.621 123.164C156.324 101.866 163.015 77.647 172.382 55.4969C172.625 54.8884 172.869 54.5233 172.869 54.5233H176.153C176.153 54.5233 176.397 54.8884 176.64 55.4969C186.129 77.647 192.698 101.744 194.401 123.164L194.645 125.963L191.603 124.503Z" fill="#F6F5F2"/>
<path d="M433.692 170.142H384.301C382.355 136.917 373.231 101.501 365.81 64.7464C365.567 63.286 363.255 63.4077 363.377 64.8681C364.958 101.744 364.837 138.621 368 170.02H340.02C342.574 124.26 342.574 80.5679 340.02 36.0243H389.411C391.357 69.2494 400.481 104.665 407.902 141.42C408.145 142.88 410.578 142.759 410.335 141.298C407.172 104.422 409.483 67.5456 405.712 36.146H433.692C431.138 81.9067 431.016 125.477 433.692 170.142Z" fill="#F6F5F2"/>
<path d="M542.085 86.6532V83.2454C542.085 75.5781 540.99 68.6409 538.922 62.5557C536.854 56.4706 533.691 51.2373 529.555 46.856C525.418 42.4747 520.309 39.1886 514.105 36.8763C508.022 34.5639 500.966 33.4686 493.059 33.4686C485.395 33.4686 478.46 34.6856 472.378 37.2414C466.295 39.6754 461.064 43.3266 456.685 47.9513C452.305 52.5761 449.02 58.2961 446.709 65.2332C444.398 72.0487 443.303 79.716 443.303 88.357V118.174C443.303 136.065 447.804 149.574 456.685 158.945C465.565 168.195 477.73 172.941 493.059 172.941C508.995 172.941 521.161 168.56 529.555 160.041C537.949 151.4 542.085 139.108 542.085 123.164V119.757H516.781V123.164C516.781 126.572 516.538 129.98 515.808 133.144C515.2 136.43 513.983 139.229 512.28 141.785C510.577 144.219 508.144 146.288 504.981 147.748C501.818 149.209 497.803 149.939 493.059 149.939C488.558 149.939 484.786 149.209 481.623 147.748C478.46 146.288 475.906 144.219 474.081 141.542C472.134 138.864 470.796 135.7 469.823 132.049C468.971 128.398 468.485 124.381 468.485 120.122V86.4097C468.485 82.3935 468.971 78.6207 469.945 74.9696C470.918 71.3184 472.378 68.1542 474.446 65.355C476.514 62.5558 479.069 60.4868 482.11 58.9046C485.151 57.3225 488.801 56.4706 493.059 56.4706C497.682 56.4706 501.453 57.2008 504.494 58.9046C507.535 60.4868 509.968 62.5558 511.793 65.1116C513.618 67.6674 514.835 70.4665 515.686 73.7525C516.416 76.9168 516.781 80.2029 516.781 83.3671V86.7748H542.085V86.6532Z" fill="#F6F5F2"/>
<path d="M303.524 36.146V123.894C303.524 131.805 301.699 138.012 297.928 142.515C294.157 147.018 288.439 149.209 280.532 149.209C272.624 149.209 266.785 147.018 263.135 142.515C259.486 138.012 257.539 131.805 257.539 123.894V36.146H232.235V123.894C232.235 139.229 236.25 151.156 244.401 159.919C252.551 168.681 264.473 172.941 280.41 172.941C296.346 172.941 308.39 168.56 316.541 159.919C324.692 151.278 328.706 139.229 328.706 123.894V36.146H303.524Z" fill="#F6F5F2"/>
<path d="M36.4958 36.5111H63.0162C62.8945 77.1602 62.7729 115.497 63.0162 147.992C77.2496 149.574 115.692 146.531 115.692 146.531L109.974 170.507H66.1791H36.4958C36.4958 170.507 37.5907 140.203 37.5907 103.57C37.7124 66.8154 36.4958 36.5111 36.4958 36.5111Z" fill="#F6F5F2"/>
<path d="M576.756 113.185V170.02H550.236C550.722 160.041 551.209 150.304 551.452 140.446C551.817 127.911 552.061 115.375 552.061 102.961C552.061 90.5476 551.817 78.1338 551.452 65.4766C551.209 55.7403 550.722 45.8823 550.236 35.9026H576.756V90.9128H617.997V35.9026H644.517C644.03 45.8823 643.544 55.7403 643.3 65.4766C642.935 78.0121 642.692 90.5476 642.692 102.961C642.692 115.375 642.935 127.789 643.3 140.446C643.544 150.182 644.03 160.041 644.517 170.02H617.997V113.185H576.756Z" fill="#F6F5F2"/>
<path d="M605.709 191.319V279.067C605.709 286.978 603.885 293.185 600.113 297.688C596.342 302.191 590.625 304.381 582.717 304.381C574.81 304.381 568.97 302.191 565.321 297.688C561.671 293.185 559.725 286.978 559.725 279.067V191.319H534.421V279.067C534.421 294.402 538.435 306.329 546.586 315.091C554.737 323.732 566.659 328.114 582.595 328.114C598.532 328.114 610.576 323.732 618.726 315.091C626.877 306.45 630.892 294.402 630.892 279.067V191.319H605.709Z" fill="#F6F5F2"/>
<path d="M506.806 203.002C498.047 193.387 486.003 188.641 470.553 188.641C455.103 188.641 443.06 193.387 434.301 203.002C425.542 212.617 421.162 226.004 421.162 243.408V273.225C421.162 291.116 425.542 304.625 434.301 313.996C443.06 323.245 455.103 327.992 470.553 327.992C486.003 327.992 498.047 323.367 506.806 313.996C515.565 304.625 519.944 291.116 519.944 273.225V243.408C519.944 226.004 515.565 212.495 506.806 203.002ZM494.397 274.807C494.397 279.31 494.275 283.327 493.424 287.099C492.694 290.751 491.356 294.037 489.409 296.592C487.463 299.27 485.03 301.339 481.989 302.799C478.947 304.26 475.054 304.99 470.553 304.99C465.93 304.99 462.159 304.26 459.118 302.799C456.076 301.339 453.522 299.27 451.697 296.592C449.751 293.915 448.412 290.751 447.682 287.099C446.953 283.448 446.466 279.31 446.466 274.807V241.947C446.466 237.688 446.953 233.793 447.804 230.02C448.656 226.369 450.116 223.083 451.94 220.527C453.887 217.85 456.32 215.659 459.361 214.077C462.402 212.495 466.052 211.643 470.432 211.643C474.811 211.643 478.461 212.373 481.502 214.077C484.543 215.659 487.098 217.85 488.923 220.527C490.869 223.205 492.207 226.369 493.059 230.02C493.911 233.793 494.397 237.688 494.397 241.947V274.807Z" fill="#F6F5F2"/>
<path d="M733.445 258.134C726.024 252.17 715.318 247.789 701.328 245.233C695.732 244.26 691.11 243.164 687.46 241.947C683.81 240.852 680.891 239.513 678.701 238.053C676.511 236.592 674.93 234.889 674.078 233.063C673.227 231.237 672.74 229.168 672.74 226.856C672.74 222.353 674.565 218.824 678.336 216.268C681.986 213.712 687.095 212.373 693.421 212.373C700.963 212.373 706.803 214.321 710.939 218.337C715.075 222.353 717.143 226.978 717.143 232.333V236.957H742.447V230.02C742.447 224.544 741.352 219.31 739.284 214.321C737.216 209.331 734.053 204.949 729.917 201.055C725.781 197.16 720.671 194.239 714.467 191.927C708.384 189.736 701.328 188.641 693.421 188.641C686.365 188.641 680.039 189.615 674.443 191.44C668.725 193.387 663.859 196.065 659.845 199.473C655.83 202.88 652.667 206.897 650.478 211.643C648.288 216.268 647.193 221.379 647.193 226.856V227.951C647.193 234.645 648.409 240.243 650.599 244.746C652.911 249.371 656.074 253.144 660.21 256.308C664.346 259.351 669.212 261.785 674.808 263.732C680.404 265.558 686.608 267.018 693.299 268.235C698.409 269.087 702.667 270.183 705.951 271.521C709.236 272.86 711.912 274.199 713.737 275.781C715.683 277.363 717.022 279.189 717.752 281.136C718.481 283.083 718.846 285.152 718.846 287.343C718.846 291.968 717.022 295.862 713.25 299.148C709.601 302.434 703.883 304.138 696.219 304.138C686.365 304.138 679.188 301.704 674.443 296.957C669.82 292.211 667.509 285.761 667.509 277.728V273.103H642.205V278.824C642.205 285.882 643.422 292.333 645.611 298.296C647.923 304.26 651.329 309.371 655.709 313.753C660.21 318.134 665.684 321.663 672.497 324.097C679.188 326.653 686.973 327.87 695.732 327.87C703.275 327.87 709.966 326.897 716.048 324.949C722.009 323.002 727.119 320.325 731.377 316.674C735.635 313.144 738.797 308.763 740.987 303.773C743.177 298.783 744.272 293.063 744.272 286.856V284.544C744.515 272.982 740.866 264.097 733.445 258.134Z" fill="#F6F5F2"/>
<path d="M783.444 268.357V302.799C797.678 304.381 836.12 301.339 836.12 301.339L834.903 325.314H786.607H756.924C757.41 315.335 757.897 305.598 758.14 295.74C758.505 283.205 758.749 270.669 758.749 258.256C758.749 245.842 758.505 233.428 758.14 220.771C757.897 211.034 757.41 201.176 756.924 191.197H786.607H831.619V215.172C831.619 215.172 797.678 212.008 783.444 213.712V246.207" fill="#F6F5F2"/>
<path d="M340.385 269.818V326.653H313.864C314.351 316.674 314.837 306.937 315.081 297.079C315.446 284.544 315.689 272.008 315.689 259.594C315.689 247.181 315.446 234.767 315.081 222.11C314.837 212.373 314.351 202.515 313.864 192.536H340.385V247.546H381.625V192.536H408.145C407.659 202.515 407.172 212.373 406.929 222.11C406.564 234.645 406.32 247.181 406.32 259.594C406.32 272.008 406.564 284.422 406.929 297.079C407.172 306.816 407.659 316.674 408.145 326.653H381.625V269.818H340.385Z" fill="#F6F5F2"/>
<path d="M770.184 247.789C784.417 249.371 822.86 246.329 822.86 246.329L821.643 270.304H773.347" fill="#F6F5F2"/>
</svg>
