<svg width="629" height="401" viewBox="0 0 629 401" fill="none" xmlns="http://www.w3.org/2000/svg">
<rect x="161" y="1" width="467" height="239" rx="25" fill="#EAFFD9"/>
<path d="M208.66 62.18C212.52 62.18 214.52 60.42 214.52 57.86C214.52 54.44 212.06 53.8 209.54 53.38C206.88 52.94 205.82 52.68 205.82 51.2C205.82 50.02 206.84 49.26 208.52 49.26C210.14 49.26 211.32 49.96 211.4 51.54H214.06C214.04 48.96 212 47.24 208.62 47.24C205.16 47.24 203.08 48.9 203.08 51.54C203.08 54.06 204.8 55.16 208.14 55.7C210.9 56.16 211.76 56.56 211.76 58.12C211.76 59.48 210.58 60.14 208.76 60.14C206.48 60.14 205.5 59.08 205.46 57.44H202.76C202.78 60.24 204.76 62.18 208.66 62.18ZM221.24 62.18C223.84 62.18 225.78 60.78 226.08 58.68H223.7C223.46 59.64 222.52 60.26 221.24 60.26C219.58 60.26 218.48 59.16 218.48 57.22H226.12C226.48 53.76 224.76 51.16 221.14 51.16C218.02 51.16 216.02 53.34 216.02 56.74C216.02 60.02 217.98 62.18 221.24 62.18ZM221.14 53.08C222.54 53.08 223.6 53.86 223.68 55.54H218.5C218.66 54.02 219.64 53.08 221.14 53.08ZM228.184 62H230.684V56.14C230.684 54.54 231.664 53.22 233.344 53.22C234.904 53.22 235.584 54.16 235.584 56.16V62H238.084V55.62C238.084 52.4 236.464 51.16 234.304 51.16C232.764 51.16 231.404 51.92 230.804 53.38H230.684L230.584 51.36H228.184V62ZM240.664 49.86H243.164V47.42H240.664V49.86ZM240.664 62H243.164V51.36H240.664V62ZM250.48 62.18C253.76 62.18 255.72 59.96 255.72 56.68C255.72 53.26 253.62 51.16 250.48 51.16C247.18 51.16 245.2 53.4 245.2 56.68C245.2 60.1 247.32 62.18 250.48 62.18ZM250.46 60.12C248.78 60.12 247.72 58.92 247.72 56.68C247.72 54.4 248.82 53.22 250.48 53.22C252.14 53.22 253.2 54.42 253.2 56.68C253.2 58.96 252.1 60.12 250.46 60.12ZM257.735 62H260.235V56.18C260.315 54.52 261.235 53.56 263.175 53.56C263.435 53.56 263.675 53.58 263.835 53.58V51.22H263.215C261.835 51.22 260.675 51.78 260.195 53.14H260.115L259.995 51.36H257.735V62ZM270.164 62H272.804V56.86L276.224 56.88C279.464 56.88 281.384 54.96 281.384 52.12C281.384 49.14 279.344 47.42 276.224 47.42H270.164V62ZM275.784 49.68C277.424 49.68 278.684 50.38 278.684 52.22C278.684 54.06 277.424 54.8 275.784 54.8L272.804 54.78V49.68H275.784ZM283.203 62H285.703V56.18C285.783 54.52 286.703 53.56 288.643 53.56C288.903 53.56 289.143 53.58 289.303 53.58V51.22H288.683C287.303 51.22 286.143 51.78 285.663 53.14H285.583L285.463 51.36H283.203V62ZM295.304 62.18C298.584 62.18 300.544 59.96 300.544 56.68C300.544 53.26 298.444 51.16 295.304 51.16C292.004 51.16 290.024 53.4 290.024 56.68C290.024 60.1 292.144 62.18 295.304 62.18ZM295.284 60.12C293.604 60.12 292.544 58.92 292.544 56.68C292.544 54.4 293.644 53.22 295.304 53.22C296.964 53.22 298.024 54.42 298.024 56.68C298.024 58.96 296.924 60.12 295.284 60.12ZM306.374 62.18C308.094 62.18 309.374 61.32 309.894 60.02H310.034L310.114 62H312.514L312.534 47.42H310.034V53.32H309.894C309.374 52.02 308.094 51.16 306.374 51.16C303.814 51.16 302.094 53.06 302.094 56.68C302.094 60.28 303.814 62.18 306.374 62.18ZM307.314 60.14C305.714 60.14 304.634 59 304.634 56.68C304.634 54.34 305.714 53.2 307.314 53.2C309.094 53.2 309.994 54.6 309.994 56.12V57.22C309.994 58.72 309.094 60.14 307.314 60.14ZM318.935 62.18C320.515 62.18 321.855 61.38 322.395 59.94H322.515L322.615 62H325.015V51.36H322.515V57.16C322.515 58.84 321.515 60.14 319.895 60.14C318.275 60.14 317.615 59.12 317.615 57.3V51.36H315.115V57.96C315.115 60.72 316.495 62.18 318.935 62.18ZM332.041 62.18C334.761 62.18 336.741 60.6 336.901 58.14H334.461C334.321 59.32 333.421 60.12 332.041 60.12C330.421 60.12 329.341 58.94 329.341 56.68C329.341 54.6 330.301 53.22 332.061 53.22C333.261 53.22 334.201 53.88 334.421 55.12H336.861C336.721 52.78 334.801 51.16 332.121 51.16C328.901 51.16 326.821 53.36 326.821 56.68C326.821 60 328.881 62.18 332.041 62.18ZM342.148 62H344.368V59.96H343.008C342.388 59.96 342.108 59.8 342.108 59.12V53.38H344.368V51.36H342.108V48.1L339.628 48.36V51.36H337.668V53.38H339.628V59.58C339.628 61.1 340.168 62 342.148 62ZM350.985 62H357.025C361.285 62 363.685 59.08 363.685 54.72C363.685 50.34 361.305 47.42 357.025 47.42H350.985V62ZM353.625 59.72V49.68H356.625C359.205 49.68 360.985 51.1 360.985 54.66C360.985 58.28 359.205 59.72 356.625 59.72H353.625ZM370.459 62.18C373.059 62.18 374.999 60.78 375.299 58.68H372.919C372.679 59.64 371.739 60.26 370.459 60.26C368.799 60.26 367.699 59.16 367.699 57.22H375.339C375.699 53.76 373.979 51.16 370.359 51.16C367.239 51.16 365.239 53.34 365.239 56.74C365.239 60.02 367.199 62.18 370.459 62.18ZM370.359 53.08C371.759 53.08 372.819 53.86 372.899 55.54H367.719C367.879 54.02 368.859 53.08 370.359 53.08ZM381.543 62.2C384.423 62.2 386.203 61.14 386.203 58.88C386.203 56.38 384.283 55.92 382.063 55.62C380.383 55.4 379.623 55.1 379.623 54.18C379.623 53.4 380.283 52.88 381.543 52.88C382.743 52.88 383.523 53.42 383.543 54.5H385.983C385.943 52.4 384.283 51.16 381.603 51.16C378.923 51.16 377.123 52.3 377.123 54.44C377.123 56.7 378.903 57.26 381.303 57.6C382.963 57.84 383.683 58.04 383.683 59.12C383.683 59.98 382.963 60.48 381.603 60.48C380.283 60.48 379.323 59.94 379.303 58.66H376.843C376.823 60.78 378.523 62.2 381.543 62.2ZM388.34 49.86H390.84V47.42H388.34V49.86ZM388.34 62H390.84V51.36H388.34V62ZM396.035 65.34H398.935C401.395 65.34 403.075 64.28 403.015 61.98C402.975 60.12 401.815 59.2 399.455 59.2H396.735C395.975 59.2 395.275 59.08 395.275 58.5C395.275 58.1 395.555 57.76 396.055 57.7C396.555 57.82 397.115 57.9 397.735 57.9C400.455 57.9 402.055 56.62 402.055 54.66C402.055 53.46 401.435 52.44 400.515 51.94C400.935 51.28 401.835 50.98 402.935 51.02V49.06C400.995 49.06 399.695 49.94 399.295 51.42C398.835 51.24 398.235 51.16 397.755 51.16C395.135 51.16 393.435 52.5 393.435 54.48C393.435 55.68 393.995 56.58 394.895 57.08V57.26C393.895 57.5 393.215 58.2 393.215 59.12C393.215 59.9 393.695 60.54 394.535 60.8V60.94C393.455 61.08 392.455 61.86 392.455 63.02C392.455 64.42 393.555 65.34 396.035 65.34ZM397.775 56.3C396.575 56.3 395.775 55.64 395.775 54.54C395.775 53.52 396.495 52.76 397.755 52.76C398.935 52.76 399.735 53.42 399.735 54.54C399.735 55.58 399.015 56.3 397.775 56.3ZM396.355 63.9C395.255 63.9 394.635 63.54 394.635 62.72C394.635 62.14 395.055 61.72 395.675 61.58H399.055C399.835 61.58 400.535 61.76 400.535 62.68C400.535 63.44 399.995 63.9 398.955 63.9H396.355ZM404.746 62H407.246V56.14C407.246 54.54 408.226 53.22 409.906 53.22C411.466 53.22 412.146 54.16 412.146 56.16V62H414.646V55.62C414.646 52.4 413.026 51.16 410.866 51.16C409.326 51.16 407.966 51.92 407.366 53.38H407.246L407.146 51.36H404.746V62ZM421.787 62.18C424.387 62.18 426.327 60.78 426.627 58.68H424.247C424.007 59.64 423.067 60.26 421.787 60.26C420.127 60.26 419.027 59.16 419.027 57.22H426.667C427.027 53.76 425.307 51.16 421.687 51.16C418.567 51.16 416.567 53.34 416.567 56.74C416.567 60.02 418.527 62.18 421.787 62.18ZM421.687 53.08C423.087 53.08 424.147 53.86 424.227 55.54H419.047C419.207 54.02 420.187 53.08 421.687 53.08ZM428.731 62H431.231V56.18C431.311 54.52 432.231 53.56 434.171 53.56C434.431 53.56 434.671 53.58 434.831 53.58V51.22H434.211C432.831 51.22 431.671 51.78 431.191 53.14H431.111L430.991 51.36H428.731V62Z" fill="#1E2330"/>
<path d="M536.21 64H538.492L539.206 61.928H542.762L543.462 64H545.8L542.104 54.2H539.906L536.21 64ZM539.78 60.234L540.088 59.338C540.522 58.05 540.788 57.14 540.97 56.426H540.984C541.166 57.14 541.432 58.05 541.838 59.24L542.174 60.234H539.78ZM546.907 66.8H548.993V63.664C548.993 63.37 548.993 63.118 548.965 62.838H548.993C549.441 63.72 550.295 64.252 551.387 64.252C553.165 64.252 554.705 62.838 554.705 60.15C554.705 57.462 553.165 56.048 551.387 56.048C550.295 56.048 549.441 56.58 548.993 57.462H548.965C548.993 57.196 548.993 56.972 548.993 56.72V56.3H546.907V66.8ZM548.979 60.15C548.979 58.61 549.581 57.63 550.729 57.63C551.863 57.63 552.479 58.61 552.479 60.15C552.479 61.69 551.863 62.67 550.729 62.67C549.581 62.67 548.979 61.69 548.979 60.15ZM556.046 66.8H558.132V63.664C558.132 63.37 558.132 63.118 558.104 62.838H558.132C558.58 63.72 559.434 64.252 560.526 64.252C562.304 64.252 563.844 62.838 563.844 60.15C563.844 57.462 562.304 56.048 560.526 56.048C559.434 56.048 558.58 56.58 558.132 57.462H558.104C558.132 57.196 558.132 56.972 558.132 56.72V56.3H556.046V66.8ZM558.118 60.15C558.118 58.61 558.72 57.63 559.868 57.63C561.002 57.63 561.618 58.61 561.618 60.15C561.618 61.69 561.002 62.67 559.868 62.67C558.72 62.67 558.118 61.69 558.118 60.15ZM565.186 64H567.272V53.066H565.186V64ZM568.239 66.8H571.431C571.851 66.8 572.145 66.604 572.299 66.212L576.289 56.3H574.063L572.299 60.99H572.271L570.493 56.3H568.239L571.179 63.58L570.493 65.162H568.239V66.8Z" fill="#1E2330"/>
<rect x="526.5" y="42.5" width="60" height="34" rx="17" stroke="#1E2330"/>
<path d="M203.232 95H204.72V90.376H206.72C208.656 90.376 209.248 90.904 209.824 93.048L210.352 95H211.888L211.248 92.68C210.864 91.272 210.368 90.248 209.024 89.72V89.688C210.64 89.368 211.552 88.312 211.552 86.872C211.552 85.048 210.096 83.8 207.536 83.8H203.232V95ZM204.72 89.064V85.128H207.52C209.12 85.128 210 85.816 210 87C210 88.344 208.88 89.064 206.8 89.064H204.72ZM216.988 95.24C219.084 95.24 220.684 94.024 221.052 92.296H219.5C219.148 93.336 218.204 93.992 216.988 93.992C215.308 93.992 214.299 92.728 214.188 91.08H221.132V90.136C221.132 87.528 219.324 85.96 216.956 85.96C214.428 85.96 212.668 87.768 212.668 90.6C212.668 93.4 214.396 95.24 216.988 95.24ZM214.22 89.848C214.412 88.36 215.308 87.208 217.004 87.208C218.636 87.208 219.628 88.28 219.628 89.848H214.22ZM222.747 95H224.187V90.024C224.187 88.2 225.227 87.24 226.443 87.24C227.499 87.24 228.251 87.944 228.251 89.576V95H229.691V90.008C229.691 88.184 230.731 87.24 231.947 87.24C233.003 87.24 233.755 87.944 233.755 89.576V95H235.195V89.432C235.195 87.32 234.123 85.96 232.331 85.96C230.907 85.96 229.979 86.808 229.531 87.992H229.499C229.131 86.728 228.187 85.96 226.875 85.96C225.451 85.96 224.603 86.872 224.187 87.752H224.155V86.2H222.747V95ZM241.207 95.24C243.639 95.24 245.575 93.56 245.575 90.6C245.575 87.64 243.639 85.96 241.207 85.96C238.775 85.96 236.839 87.64 236.839 90.6C236.839 93.56 238.775 95.24 241.207 95.24ZM238.343 90.6C238.343 88.36 239.607 87.208 241.207 87.208C242.807 87.208 244.071 88.36 244.071 90.6C244.071 92.84 242.807 93.992 241.207 93.992C239.607 93.992 238.343 92.84 238.343 90.6ZM250.119 95H252.087V93.72H250.279C249.607 93.72 249.223 93.432 249.223 92.68V87.48H252.007V86.2H249.223V83.8H247.783V86.2H246.023V87.48H247.783V92.68C247.783 94.232 248.583 95 250.119 95ZM256.894 95.24C258.99 95.24 260.59 94.024 260.958 92.296H259.406C259.054 93.336 258.11 93.992 256.894 93.992C255.214 93.992 254.206 92.728 254.094 91.08H261.038V90.136C261.038 87.528 259.23 85.96 256.862 85.96C254.334 85.96 252.574 87.768 252.574 90.6C252.574 93.4 254.302 95.24 256.894 95.24ZM254.126 89.848C254.318 88.36 255.214 87.208 256.91 87.208C258.542 87.208 259.534 88.28 259.534 89.848H254.126Z" fill="#1E2330"/>
<rect opacity="0.2" x="202" y="127" width="385" height="8" rx="4" fill="#1E2330"/>
<rect opacity="0.2" x="202" y="159" width="385" height="8" rx="4" fill="#1E2330"/>
<rect opacity="0.2" x="202" y="191" width="280" height="8" rx="4" fill="#1E2330"/>
<rect x="161" y="1" width="467" height="239" rx="25" stroke="#1E2330" stroke-width="2"/>
<rect x="81" y="81" width="467" height="239" rx="25" fill="#EAFFD9"/>
<path d="M128.66 142.18C124.76 142.18 122.78 140.24 122.76 137.44H125.46C125.5 139.08 126.48 140.14 128.76 140.14C130.58 140.14 131.76 139.48 131.76 138.12C131.76 136.56 130.9 136.16 128.14 135.7C124.8 135.16 123.08 134.06 123.08 131.54C123.08 128.9 125.16 127.24 128.62 127.24C132 127.24 134.04 128.96 134.06 131.54H131.4C131.32 129.96 130.14 129.26 128.52 129.26C126.84 129.26 125.82 130.02 125.82 131.2C125.82 132.68 126.88 132.94 129.54 133.38C132.06 133.8 134.52 134.44 134.52 137.86C134.52 140.42 132.52 142.18 128.66 142.18ZM136.68 142V131.36H139.1L139.18 133.38H139.3C139.86 131.92 141.2 131.16 142.68 131.16C144.22 131.16 145.54 131.84 146.1 133.6H146.26C146.8 131.98 148.24 131.16 149.88 131.16C151.96 131.16 153.56 132.4 153.56 135.62V142H151.06V136.16C151.06 134.16 150.4 133.22 148.92 133.22C147.32 133.22 146.38 134.54 146.38 136.14V142H143.86V136.16C143.86 134.16 143.2 133.22 141.74 133.22C140.12 133.22 139.18 134.54 139.18 136.14V142H136.68ZM158.833 142.18C156.753 142.18 155.333 140.96 155.333 139.14C155.333 136.8 157.153 135.76 159.633 135.76H162.253V135C162.253 133.86 161.633 133.12 160.193 133.12C158.773 133.12 158.033 133.78 158.013 134.74H155.673C155.693 132.54 157.473 131.16 160.353 131.16C163.093 131.16 164.753 132.38 164.753 135.1V139.84C164.753 140.64 164.813 141.72 164.933 142H162.573C162.473 141.7 162.393 141.06 162.373 140.24H162.273C161.893 141.4 160.513 142.18 158.833 142.18ZM159.793 140.3C161.313 140.3 162.253 139.48 162.253 138.2V137.28H160.073C158.633 137.28 157.853 137.78 157.853 138.78C157.853 139.74 158.553 140.3 159.793 140.3ZM167.305 142V131.36H169.565L169.685 133.14H169.765C170.245 131.78 171.405 131.22 172.785 131.22H173.405V133.58C173.245 133.58 173.005 133.56 172.745 133.56C170.805 133.56 169.885 134.52 169.805 136.18V142H167.305ZM178.788 142C176.808 142 176.268 141.1 176.268 139.58V133.38H174.308V131.36H176.268V128.36L178.748 128.1V131.36H181.008V133.38H178.748V139.12C178.748 139.8 179.028 139.96 179.648 139.96H181.008V142H178.788ZM193.925 142.18C189.585 142.18 186.685 139.38 186.685 134.7C186.685 130.04 189.585 127.24 193.925 127.24C197.585 127.24 200.225 129.28 200.645 132.38H197.945C197.585 130.7 196.065 129.52 193.925 129.52C191.165 129.52 189.425 131.34 189.425 134.7C189.425 138.1 191.165 139.9 193.925 139.9C196.025 139.9 197.625 138.76 197.945 137.02H200.645C200.265 140.14 197.565 142.18 193.925 142.18ZM207.452 142.18C204.292 142.18 202.172 140.1 202.172 136.68C202.172 133.4 204.152 131.16 207.452 131.16C210.592 131.16 212.692 133.26 212.692 136.68C212.692 139.96 210.732 142.18 207.452 142.18ZM207.432 140.12C209.072 140.12 210.172 138.96 210.172 136.68C210.172 134.42 209.112 133.22 207.452 133.22C205.792 133.22 204.692 134.4 204.692 136.68C204.692 138.92 205.752 140.12 207.432 140.12ZM214.707 142V131.36H217.107L217.207 133.38H217.327C217.927 131.92 219.287 131.16 220.827 131.16C222.987 131.16 224.607 132.4 224.607 135.62V142H222.107V136.16C222.107 134.16 221.427 133.22 219.867 133.22C218.187 133.22 217.207 134.54 217.207 136.14V142H214.707ZM230.214 142C228.234 142 227.694 141.1 227.694 139.58V133.38H225.734V131.36H227.694V128.36L230.174 128.1V131.36H232.434V133.38H230.174V139.12C230.174 139.8 230.454 139.96 231.074 139.96H232.434V142H230.214ZM234.356 142V131.36H236.616L236.736 133.14H236.816C237.296 131.78 238.456 131.22 239.836 131.22H240.456V133.58C240.296 133.58 240.056 133.56 239.796 133.56C237.856 133.56 236.936 134.52 236.856 136.18V142H234.356ZM244.536 142.18C242.456 142.18 241.036 140.96 241.036 139.14C241.036 136.8 242.856 135.76 245.336 135.76H247.956V135C247.956 133.86 247.336 133.12 245.896 133.12C244.476 133.12 243.736 133.78 243.716 134.74H241.376C241.396 132.54 243.176 131.16 246.056 131.16C248.796 131.16 250.456 132.38 250.456 135.1V139.84C250.456 140.64 250.516 141.72 250.636 142H248.276C248.176 141.7 248.096 141.06 248.076 140.24H247.976C247.596 141.4 246.216 142.18 244.536 142.18ZM245.496 140.3C247.016 140.3 247.956 139.48 247.956 138.2V137.28H245.776C244.336 137.28 243.556 137.78 243.556 138.78C243.556 139.74 244.256 140.3 245.496 140.3ZM257.47 142.18C254.31 142.18 252.25 140 252.25 136.68C252.25 133.36 254.33 131.16 257.55 131.16C260.23 131.16 262.15 132.78 262.29 135.12H259.85C259.63 133.88 258.69 133.22 257.49 133.22C255.73 133.22 254.77 134.6 254.77 136.68C254.77 138.94 255.85 140.12 257.47 140.12C258.85 140.12 259.75 139.32 259.89 138.14H262.33C262.17 140.6 260.19 142.18 257.47 142.18ZM267.578 142C265.598 142 265.058 141.1 265.058 139.58V133.38H263.098V131.36H265.058V128.36L267.538 128.1V131.36H269.798V133.38H267.538V139.12C267.538 139.8 267.818 139.96 268.438 139.96H269.798V142H267.578ZM276.414 142V127.42H286.814V129.7H279.054V133.5H285.834V135.64H279.054V139.72H286.854V142H276.414ZM289.18 142V131.36H291.58L291.68 133.38H291.8C292.4 131.92 293.76 131.16 295.3 131.16C297.46 131.16 299.08 132.4 299.08 135.62V142H296.58V136.16C296.58 134.16 295.9 133.22 294.34 133.22C292.66 133.22 291.68 134.54 291.68 136.14V142H289.18ZM304.16 145.34C301.68 145.34 300.58 144.42 300.58 143.02C300.58 141.86 301.58 141.08 302.66 140.94V140.8C301.82 140.54 301.34 139.9 301.34 139.12C301.34 138.2 302.02 137.5 303.02 137.26V137.08C302.12 136.58 301.56 135.68 301.56 134.48C301.56 132.5 303.26 131.16 305.88 131.16C306.36 131.16 306.96 131.24 307.42 131.42C307.82 129.94 309.12 129.06 311.06 129.06V131.02C309.96 130.98 309.06 131.28 308.64 131.94C309.56 132.44 310.18 133.46 310.18 134.66C310.18 136.62 308.58 137.9 305.86 137.9C305.24 137.9 304.68 137.82 304.18 137.7C303.68 137.76 303.4 138.1 303.4 138.5C303.4 139.08 304.1 139.2 304.86 139.2H307.58C309.94 139.2 311.1 140.12 311.14 141.98C311.2 144.28 309.52 145.34 307.06 145.34H304.16ZM305.9 136.3C307.14 136.3 307.86 135.58 307.86 134.54C307.86 133.42 307.06 132.76 305.88 132.76C304.62 132.76 303.9 133.52 303.9 134.54C303.9 135.64 304.7 136.3 305.9 136.3ZM304.48 143.9H307.08C308.12 143.9 308.66 143.44 308.66 142.68C308.66 141.76 307.96 141.58 307.18 141.58H303.8C303.18 141.72 302.76 142.14 302.76 142.72C302.76 143.54 303.38 143.9 304.48 143.9ZM312.871 129.86V127.42H315.371V129.86H312.871ZM312.871 142V131.36H315.371V142H312.871ZM318.067 142V131.36H320.467L320.567 133.38H320.687C321.287 131.92 322.647 131.16 324.187 131.16C326.347 131.16 327.967 132.4 327.967 135.62V142H325.467V136.16C325.467 134.16 324.787 133.22 323.227 133.22C321.547 133.22 320.567 134.54 320.567 136.14V142H318.067ZM335.107 142.18C331.847 142.18 329.887 140.02 329.887 136.74C329.887 133.34 331.887 131.16 335.007 131.16C338.627 131.16 340.347 133.76 339.987 137.22H332.347C332.347 139.16 333.447 140.26 335.107 140.26C336.387 140.26 337.327 139.64 337.567 138.68H339.947C339.647 140.78 337.707 142.18 335.107 142.18ZM335.007 133.08C333.507 133.08 332.527 134.02 332.367 135.54H337.547C337.467 133.86 336.407 133.08 335.007 133.08ZM346.806 142.18C343.546 142.18 341.586 140.02 341.586 136.74C341.586 133.34 343.586 131.16 346.706 131.16C350.326 131.16 352.046 133.76 351.686 137.22H344.046C344.046 139.16 345.146 140.26 346.806 140.26C348.086 140.26 349.026 139.64 349.266 138.68H351.646C351.346 140.78 349.406 142.18 346.806 142.18ZM346.706 133.08C345.206 133.08 344.226 134.02 344.066 135.54H349.246C349.166 133.86 348.106 133.08 346.706 133.08ZM353.75 142V131.36H356.01L356.13 133.14H356.21C356.69 131.78 357.85 131.22 359.23 131.22H359.85V133.58C359.69 133.58 359.45 133.56 359.19 133.56C357.25 133.56 356.33 134.52 356.25 136.18V142H353.75Z" fill="#1E2330"/>
<path d="M456.21 144H458.492L459.206 141.928H462.762L463.462 144H465.8L462.104 134.2H459.906L456.21 144ZM459.78 140.234L460.088 139.338C460.522 138.05 460.788 137.14 460.97 136.426H460.984C461.166 137.14 461.432 138.05 461.838 139.24L462.174 140.234H459.78ZM466.907 146.8H468.993V143.664C468.993 143.37 468.993 143.118 468.965 142.838H468.993C469.441 143.72 470.295 144.252 471.387 144.252C473.165 144.252 474.705 142.838 474.705 140.15C474.705 137.462 473.165 136.048 471.387 136.048C470.295 136.048 469.441 136.58 468.993 137.462H468.965C468.993 137.196 468.993 136.972 468.993 136.72V136.3H466.907V146.8ZM468.979 140.15C468.979 138.61 469.581 137.63 470.729 137.63C471.863 137.63 472.479 138.61 472.479 140.15C472.479 141.69 471.863 142.67 470.729 142.67C469.581 142.67 468.979 141.69 468.979 140.15ZM476.046 146.8H478.132V143.664C478.132 143.37 478.132 143.118 478.104 142.838H478.132C478.58 143.72 479.434 144.252 480.526 144.252C482.304 144.252 483.844 142.838 483.844 140.15C483.844 137.462 482.304 136.048 480.526 136.048C479.434 136.048 478.58 136.58 478.132 137.462H478.104C478.132 137.196 478.132 136.972 478.132 136.72V136.3H476.046V146.8ZM478.118 140.15C478.118 138.61 478.72 137.63 479.868 137.63C481.002 137.63 481.618 138.61 481.618 140.15C481.618 141.69 481.002 142.67 479.868 142.67C478.72 142.67 478.118 141.69 478.118 140.15ZM485.186 144H487.272V133.066H485.186V144ZM488.239 146.8H491.431C491.851 146.8 492.145 146.604 492.299 146.212L496.289 136.3H494.063L492.299 140.99H492.271L490.493 136.3H488.239L491.179 143.58L490.493 145.162H488.239V146.8Z" fill="#1E2330"/>
<rect x="446.5" y="122.5" width="60" height="34" rx="17" stroke="#1E2330"/>
<path d="M123.232 175H124.72V170.376H126.72C128.656 170.376 129.248 170.904 129.824 173.048L130.352 175H131.888L131.248 172.68C130.864 171.272 130.368 170.248 129.024 169.72V169.688C130.64 169.368 131.552 168.312 131.552 166.872C131.552 165.048 130.096 163.8 127.536 163.8H123.232V175ZM124.72 169.064V165.128H127.52C129.12 165.128 130 165.816 130 167C130 168.344 128.88 169.064 126.8 169.064H124.72ZM136.988 175.24C139.084 175.24 140.684 174.024 141.052 172.296H139.5C139.148 173.336 138.204 173.992 136.988 173.992C135.308 173.992 134.299 172.728 134.188 171.08H141.132V170.136C141.132 167.528 139.324 165.96 136.956 165.96C134.428 165.96 132.668 167.768 132.668 170.6C132.668 173.4 134.396 175.24 136.988 175.24ZM134.22 169.848C134.412 168.36 135.308 167.208 137.004 167.208C138.636 167.208 139.628 168.28 139.628 169.848H134.22ZM142.747 175H144.187V170.024C144.187 168.2 145.227 167.24 146.443 167.24C147.499 167.24 148.251 167.944 148.251 169.576V175H149.691V170.008C149.691 168.184 150.731 167.24 151.947 167.24C153.003 167.24 153.755 167.944 153.755 169.576V175H155.195V169.432C155.195 167.32 154.123 165.96 152.331 165.96C150.907 165.96 149.979 166.808 149.531 167.992H149.499C149.131 166.728 148.187 165.96 146.875 165.96C145.451 165.96 144.603 166.872 144.187 167.752H144.155V166.2H142.747V175ZM161.207 175.24C163.639 175.24 165.575 173.56 165.575 170.6C165.575 167.64 163.639 165.96 161.207 165.96C158.775 165.96 156.839 167.64 156.839 170.6C156.839 173.56 158.775 175.24 161.207 175.24ZM158.343 170.6C158.343 168.36 159.607 167.208 161.207 167.208C162.807 167.208 164.071 168.36 164.071 170.6C164.071 172.84 162.807 173.992 161.207 173.992C159.607 173.992 158.343 172.84 158.343 170.6ZM170.119 175H172.087V173.72H170.279C169.607 173.72 169.223 173.432 169.223 172.68V167.48H172.007V166.2H169.223V163.8H167.783V166.2H166.023V167.48H167.783V172.68C167.783 174.232 168.583 175 170.119 175ZM176.894 175.24C178.99 175.24 180.59 174.024 180.958 172.296H179.406C179.054 173.336 178.11 173.992 176.894 173.992C175.214 173.992 174.206 172.728 174.094 171.08H181.038V170.136C181.038 167.528 179.23 165.96 176.862 165.96C174.334 165.96 172.574 167.768 172.574 170.6C172.574 173.4 174.302 175.24 176.894 175.24ZM174.126 169.848C174.318 168.36 175.214 167.208 176.91 167.208C178.542 167.208 179.534 168.28 179.534 169.848H174.126Z" fill="#1E2330"/>
<rect opacity="0.2" x="122" y="207" width="385" height="8" rx="4" fill="#1E2330"/>
<rect opacity="0.2" x="122" y="239" width="385" height="8" rx="4" fill="#1E2330"/>
<rect opacity="0.2" x="122" y="271" width="280" height="8" rx="4" fill="#1E2330"/>
<rect x="81" y="81" width="467" height="239" rx="25" stroke="#1E2330" stroke-width="2"/>
<rect x="1" y="161" width="467" height="239" rx="25" fill="#EAFFD9"/>
<path d="M43.68 222H50.32C53.54 222 55.44 220.56 55.44 217.86C55.44 216.2 54.52 214.84 52.78 214.5V214.36C54.26 213.96 55.04 212.68 55.04 211.16C55.04 208.92 53.54 207.42 50.62 207.42H43.68V222ZM46.24 213.56V209.46H49.94C51.42 209.46 52.38 210.18 52.38 211.52C52.38 212.74 51.66 213.56 50.1 213.56H46.24ZM46.24 219.94V215.54H50.22C51.78 215.54 52.74 216.26 52.74 217.7C52.74 219.04 51.88 219.94 50.04 219.94H46.24ZM62.0797 222.18C64.6797 222.18 66.6197 220.78 66.9197 218.68H64.5397C64.2997 219.64 63.3597 220.26 62.0797 220.26C60.4197 220.26 59.3197 219.16 59.3197 217.22H66.9597C67.3197 213.76 65.5997 211.16 61.9797 211.16C58.8597 211.16 56.8597 213.34 56.8597 216.74C56.8597 220.02 58.8197 222.18 62.0797 222.18ZM61.9797 213.08C63.3797 213.08 64.4397 213.86 64.5197 215.54H59.3397C59.4997 214.02 60.4797 213.08 61.9797 213.08ZM72.3236 222H74.5436V219.96H73.1836C72.5636 219.96 72.2836 219.8 72.2836 219.12V213.38H74.5436V211.36H72.2836V208.1L69.8036 208.36V211.36H67.8436V213.38H69.8036V219.58C69.8036 221.1 70.3436 222 72.3236 222ZM79.165 222.18C80.845 222.18 82.225 221.4 82.605 220.24H82.705C82.725 221.06 82.805 221.7 82.905 222H85.265C85.145 221.72 85.085 220.64 85.085 219.84V215.1C85.085 212.38 83.425 211.16 80.685 211.16C77.805 211.16 76.025 212.54 76.005 214.74H78.345C78.365 213.78 79.105 213.12 80.525 213.12C81.965 213.12 82.585 213.86 82.585 215V215.76H79.965C77.485 215.76 75.665 216.8 75.665 219.14C75.665 220.96 77.085 222.18 79.165 222.18ZM80.125 220.3C78.885 220.3 78.185 219.74 78.185 218.78C78.185 217.78 78.965 217.28 80.405 217.28H82.585V218.2C82.585 219.48 81.645 220.3 80.125 220.3ZM95.2923 222H97.5123V219.96H96.1523C95.5323 219.96 95.2523 219.8 95.2523 219.12V213.38H97.5123V211.36H95.2523V208.1L92.7723 208.36V211.36H90.8123V213.38H92.7723V219.58C92.7723 221.1 93.3123 222 95.2923 222ZM103.701 222.18C106.301 222.18 108.241 220.78 108.541 218.68H106.161C105.921 219.64 104.981 220.26 103.701 220.26C102.041 220.26 100.941 219.16 100.941 217.22H108.581C108.941 213.76 107.221 211.16 103.601 211.16C100.481 211.16 98.4808 213.34 98.4808 216.74C98.4808 220.02 100.441 222.18 103.701 222.18ZM103.601 213.08C105.001 213.08 106.061 213.86 106.141 215.54H100.961C101.121 214.02 102.101 213.08 103.601 213.08ZM114.785 222.2C117.665 222.2 119.445 221.14 119.445 218.88C119.445 216.38 117.525 215.92 115.305 215.62C113.625 215.4 112.865 215.1 112.865 214.18C112.865 213.4 113.525 212.88 114.785 212.88C115.985 212.88 116.765 213.42 116.785 214.5H119.225C119.185 212.4 117.525 211.16 114.845 211.16C112.165 211.16 110.365 212.3 110.365 214.44C110.365 216.7 112.145 217.26 114.545 217.6C116.205 217.84 116.925 218.04 116.925 219.12C116.925 219.98 116.205 220.48 114.845 220.48C113.525 220.48 112.565 219.94 112.545 218.66H110.085C110.065 220.78 111.765 222.2 114.785 222.2ZM124.882 222H127.102V219.96H125.742C125.122 219.96 124.842 219.8 124.842 219.12V213.38H127.102V211.36H124.842V208.1L122.362 208.36V211.36H120.402V213.38H122.362V219.58C122.362 221.1 122.902 222 124.882 222ZM133.291 222.18C135.891 222.18 137.831 220.78 138.131 218.68H135.751C135.511 219.64 134.571 220.26 133.291 220.26C131.631 220.26 130.531 219.16 130.531 217.22H138.171C138.531 213.76 136.811 211.16 133.191 211.16C130.071 211.16 128.071 213.34 128.071 216.74C128.071 220.02 130.031 222.18 133.291 222.18ZM133.191 213.08C134.591 213.08 135.651 213.86 135.731 215.54H130.551C130.711 214.02 131.691 213.08 133.191 213.08ZM140.235 222H142.735V216.18C142.815 214.52 143.735 213.56 145.675 213.56C145.935 213.56 146.175 213.58 146.335 213.58V211.22H145.715C144.335 211.22 143.175 211.78 142.695 213.14H142.615L142.495 211.36H140.235V222Z" fill="#1E2330"/>
<path d="M376.21 224H378.492L379.206 221.928H382.762L383.462 224H385.8L382.104 214.2H379.906L376.21 224ZM379.78 220.234L380.088 219.338C380.522 218.05 380.788 217.14 380.97 216.426H380.984C381.166 217.14 381.432 218.05 381.838 219.24L382.174 220.234H379.78ZM386.907 226.8H388.993V223.664C388.993 223.37 388.993 223.118 388.965 222.838H388.993C389.441 223.72 390.295 224.252 391.387 224.252C393.165 224.252 394.705 222.838 394.705 220.15C394.705 217.462 393.165 216.048 391.387 216.048C390.295 216.048 389.441 216.58 388.993 217.462H388.965C388.993 217.196 388.993 216.972 388.993 216.72V216.3H386.907V226.8ZM388.979 220.15C388.979 218.61 389.581 217.63 390.729 217.63C391.863 217.63 392.479 218.61 392.479 220.15C392.479 221.69 391.863 222.67 390.729 222.67C389.581 222.67 388.979 221.69 388.979 220.15ZM396.046 226.8H398.132V223.664C398.132 223.37 398.132 223.118 398.104 222.838H398.132C398.58 223.72 399.434 224.252 400.526 224.252C402.304 224.252 403.844 222.838 403.844 220.15C403.844 217.462 402.304 216.048 400.526 216.048C399.434 216.048 398.58 216.58 398.132 217.462H398.104C398.132 217.196 398.132 216.972 398.132 216.72V216.3H396.046V226.8ZM398.118 220.15C398.118 218.61 398.72 217.63 399.868 217.63C401.002 217.63 401.618 218.61 401.618 220.15C401.618 221.69 401.002 222.67 399.868 222.67C398.72 222.67 398.118 221.69 398.118 220.15ZM405.186 224H407.272V213.066H405.186V224ZM408.239 226.8H411.431C411.851 226.8 412.145 226.604 412.299 226.212L416.289 216.3H414.063L412.299 220.99H412.271L410.493 216.3H408.239L411.179 223.58L410.493 225.162H408.239V226.8Z" fill="#1E2330"/>
<rect x="366.5" y="202.5" width="60" height="34" rx="17" stroke="#1E2330"/>
<path d="M43.232 255H44.72V250.376H46.72C48.656 250.376 49.248 250.904 49.824 253.048L50.352 255H51.888L51.248 252.68C50.864 251.272 50.368 250.248 49.024 249.72V249.688C50.64 249.368 51.552 248.312 51.552 246.872C51.552 245.048 50.096 243.8 47.536 243.8H43.232V255ZM44.72 249.064V245.128H47.52C49.12 245.128 50 245.816 50 247C50 248.344 48.88 249.064 46.8 249.064H44.72ZM56.9875 255.24C59.0835 255.24 60.6835 254.024 61.0515 252.296H59.4995C59.1475 253.336 58.2035 253.992 56.9875 253.992C55.3075 253.992 54.2995 252.728 54.1875 251.08H61.1315V250.136C61.1315 247.528 59.3235 245.96 56.9555 245.96C54.4275 245.96 52.6675 247.768 52.6675 250.6C52.6675 253.4 54.3955 255.24 56.9875 255.24ZM54.2195 249.848C54.4115 248.36 55.3075 247.208 57.0035 247.208C58.6355 247.208 59.6275 248.28 59.6275 249.848H54.2195ZM62.7469 255H64.1869V250.024C64.1869 248.2 65.2269 247.24 66.4429 247.24C67.4989 247.24 68.2509 247.944 68.2509 249.576V255H69.6909V250.008C69.6909 248.184 70.7309 247.24 71.9469 247.24C73.0029 247.24 73.7549 247.944 73.7549 249.576V255H75.1949V249.432C75.1949 247.32 74.1229 245.96 72.3309 245.96C70.9069 245.96 69.9789 246.808 69.5309 247.992H69.4989C69.1309 246.728 68.1869 245.96 66.8749 245.96C65.4509 245.96 64.6029 246.872 64.1869 247.752H64.1549V246.2H62.7469V255ZM81.2074 255.24C83.6394 255.24 85.5754 253.56 85.5754 250.6C85.5754 247.64 83.6394 245.96 81.2074 245.96C78.7754 245.96 76.8394 247.64 76.8394 250.6C76.8394 253.56 78.7754 255.24 81.2074 255.24ZM78.3434 250.6C78.3434 248.36 79.6074 247.208 81.2074 247.208C82.8074 247.208 84.0714 248.36 84.0714 250.6C84.0714 252.84 82.8074 253.992 81.2074 253.992C79.6074 253.992 78.3434 252.84 78.3434 250.6ZM90.1191 255H92.0871V253.72H90.2791C89.6071 253.72 89.2231 253.432 89.2231 252.68V247.48H92.0071V246.2H89.2231V243.8H87.7831V246.2H86.0231V247.48H87.7831V252.68C87.7831 254.232 88.5831 255 90.1191 255ZM96.8938 255.24C98.9898 255.24 100.59 254.024 100.958 252.296H99.4058C99.0538 253.336 98.1098 253.992 96.8938 253.992C95.2138 253.992 94.2057 252.728 94.0938 251.08H101.038V250.136C101.038 247.528 99.2298 245.96 96.8618 245.96C94.3338 245.96 92.5738 247.768 92.5738 250.6C92.5738 253.4 94.3018 255.24 96.8938 255.24ZM94.1258 249.848C94.3178 248.36 95.2138 247.208 96.9098 247.208C98.5418 247.208 99.5338 248.28 99.5338 249.848H94.1258Z" fill="#1E2330"/>
<rect opacity="0.2" x="42" y="287" width="385" height="8" rx="4" fill="#1E2330"/>
<rect opacity="0.2" x="42" y="319" width="385" height="8" rx="4" fill="#1E2330"/>
<rect opacity="0.2" x="42" y="351" width="280" height="8" rx="4" fill="#1E2330"/>
<rect x="1" y="161" width="467" height="239" rx="25" stroke="#1E2330" stroke-width="2"/>
</svg>
