<svg width="90" height="35" viewBox="0 0 90 35" fill="none" xmlns="http://www.w3.org/2000/svg">
<path d="M63.9704 24.1996L65.9233 23.5996V7.77734L63.9704 8.37734V24.1996ZM41.4436 14.5996C42.6699 14.5996 43.8053 15.1329 44.532 16.0218L45.3268 14.2218C44.2822 13.244 42.897 12.7773 41.4436 12.7773C38.0828 12.7773 35.7665 15.3773 35.7892 18.244C35.8119 21.3551 38.3099 23.8885 41.4436 23.8885C43.0332 23.8885 44.2368 23.4218 45.1451 22.7773V20.5773C44.1913 21.5107 42.8061 22.0662 41.6026 22.0662C39.7859 22.0662 37.7422 20.6218 37.7422 18.244C37.7422 16.044 39.5134 14.5996 41.4436 14.5996ZM54.4328 12.7773C51.072 12.7773 49.1191 15.3773 49.1191 18.244C49.1191 21.3551 51.6397 23.8885 54.7734 23.8885C56.363 23.8885 57.5666 23.4218 58.4749 22.7773V20.5773C57.5212 21.5107 56.136 22.0662 54.9324 22.0662C53.3201 22.0662 51.5489 21.0885 51.1855 19.0218H59.7466V18.2885C59.7466 15.2218 57.6801 12.7773 54.4328 12.7773ZM75.5289 12.7773C72.3952 12.7773 69.8518 15.2662 69.8518 18.3329C69.8518 21.3996 72.3952 23.8885 75.5289 23.8885C78.6627 23.8885 81.206 21.3996 81.206 18.3329C81.206 15.2662 78.6627 12.7773 75.5289 12.7773ZM54.4555 14.5996C55.977 14.5996 57.5893 15.5329 57.7255 17.3329H51.1855C51.3218 15.5329 52.9341 14.5996 54.4555 14.5996ZM75.5289 22.0662C74.7744 22.0662 74.0368 21.8473 73.4094 21.437C72.782 21.0268 72.2931 20.4438 72.0043 19.7616C71.7156 19.0794 71.64 18.3288 71.7872 17.6046C71.9344 16.8804 72.2978 16.2151 72.8313 15.693C73.3648 15.1709 74.0446 14.8154 74.7847 14.6713C75.5247 14.5272 76.2918 14.6012 76.9889 14.8837C77.686 15.1663 78.2818 15.6448 78.701 16.2588C79.1202 16.8727 79.3439 17.5945 79.3439 18.3329C79.3448 18.8234 79.2467 19.3092 79.0552 19.7626C78.8638 20.2159 78.5828 20.6278 78.2284 20.9746C77.874 21.3214 77.4531 21.5964 76.9899 21.7837C76.5266 21.971 76.0302 22.067 75.5289 22.0662Z" fill="#2E3338"/>
<path d="M17.0547 24.4444C20.5037 24.4444 23.2995 21.7084 23.2995 18.3333C23.2995 14.9582 20.5037 12.2222 17.0547 12.2222C13.6058 12.2222 10.8099 14.9582 10.8099 18.3333C10.8099 21.7084 13.6058 24.4444 17.0547 24.4444ZM17.0547 26.6667C12.3518 26.6667 8.53906 22.9356 8.53906 18.3333C8.53906 13.7311 12.3518 10 17.0547 10C21.7576 10 25.5704 13.7311 25.5704 18.3333C25.5704 22.9356 21.7576 26.6667 17.0547 26.6667Z" fill="#2E3338"/>
<path d="M21.5957 20.0001C25.0447 20.0001 27.8405 17.2641 27.8405 13.889C27.8405 10.5139 25.0447 7.77789 21.5957 7.77789C18.1468 7.77789 15.3509 10.5139 15.3509 13.889C15.3509 17.2641 18.1468 20.0001 21.5957 20.0001ZM21.5957 22.2223C16.8928 22.2223 13.0801 18.4912 13.0801 13.889C13.0801 9.28678 16.8928 5.55566 21.5957 5.55566C26.2986 5.55566 30.1114 9.28678 30.1114 13.889C30.1114 18.4912 26.2986 22.2223 21.5957 22.2223Z" fill="#2E3338"/>
</svg>
