<svg width="101" height="35" viewBox="0 0 101 35" fill="none" xmlns="http://www.w3.org/2000/svg">
<path d="M29.6986 17.7487V22.952C29.6967 23.2764 29.6104 23.5949 29.4479 23.8761C29.2855 24.1574 29.0527 24.3918 28.7721 24.5566L24.248 27.1528C23.9678 27.3192 23.6476 27.407 23.3214 27.407C22.9952 27.407 22.6751 27.3192 22.3949 27.1528L17.8708 24.5566C17.5902 24.3918 17.3573 24.1574 17.1949 23.8761C17.0325 23.5949 16.9461 23.2764 16.9442 22.952V21.4916L19.2606 20.152V22.6905L23.3142 25.0343L27.3678 22.6905V18.0137L23.3142 15.6699L13.8172 21.1508C13.5344 21.3096 13.2153 21.393 12.8906 21.393C12.566 21.393 12.2469 21.3096 11.9641 21.1508L7.43997 18.5437C7.1637 18.3765 6.9353 18.1412 6.77678 17.8604C6.61831 17.5797 6.53511 17.263 6.53516 16.9409V11.7376C6.53703 11.4131 6.62341 11.0947 6.78583 10.8134C6.9482 10.5322 7.18112 10.2977 7.46168 10.133L11.9858 7.53677C12.2666 7.37203 12.5865 7.28516 12.9123 7.28516C13.2382 7.28516 13.5581 7.37203 13.8389 7.53677L18.363 10.133C18.6436 10.2977 18.8765 10.5322 19.0389 10.8134C19.2013 11.0947 19.2877 11.4131 19.2895 11.7376V13.198L16.9587 14.5286V12.0045L12.9051 9.66065L8.85148 12.0045V16.6759L12.9051 19.0197L22.4021 13.5388C22.6849 13.38 23.004 13.2966 23.3287 13.2966C23.6533 13.2966 23.9724 13.38 24.2552 13.5388L28.7793 16.1458C29.0583 16.3113 29.2896 16.5459 29.4506 16.8267C29.6118 17.1076 29.6972 17.4252 29.6986 17.7487Z" fill="#0A0B0D"/>
<path d="M37.7594 24.8434V20.7886C38.2009 21.342 39.0026 21.6521 39.931 21.6521C42.3016 21.6521 43.9031 19.9754 43.9031 17.4189C43.9031 14.8623 42.4319 13.1855 40.1282 13.1855C39.066 13.1855 38.248 13.5768 37.7576 14.2114V13.3099H35.4883V24.838L37.7594 24.8434ZM39.6505 19.6978C38.4235 19.6978 37.6237 18.7855 37.6237 17.4189C37.6237 16.0522 38.4235 15.1237 39.6505 15.1237C40.843 15.1237 41.661 16.0252 41.661 17.4189C41.661 18.8125 40.8485 19.6978 39.6505 19.6978Z" fill="#0A0B0D"/>
<path d="M49.0619 21.6521C51.5956 21.6521 53.4051 19.8601 53.4051 17.4189C53.4051 14.9776 51.5956 13.1855 49.0619 13.1855C46.5284 13.1855 44.7188 14.9759 44.7188 17.4189C44.7188 19.8618 46.5284 21.6521 49.0619 21.6521ZM49.0619 19.6978C47.8368 19.6978 47.0025 18.7692 47.0025 17.4189C47.0025 16.0684 47.8386 15.1237 49.0619 15.1237C50.2852 15.1237 51.1211 16.0504 51.1211 17.4189C51.1211 18.7873 50.2886 19.6978 49.0619 19.6978Z" fill="#0A0B0D"/>
<path d="M57.0541 21.5223V9.74902H54.7832V21.5223H57.0541Z" fill="#0A0B0D"/>
<path d="M63.8823 13.3154L62.1667 18.6071L60.4347 13.3154H58.1094L61.0988 21.4558L59.8899 24.8435H62.0617L63.2287 21.4918L66.2201 13.319L63.8823 13.3154Z" fill="#0A0B0D"/>
<path d="M72.6002 14.1303C72.1421 13.5605 71.3336 13.1855 70.3288 13.1855C67.926 13.1855 66.4727 14.8623 66.4727 17.4189C66.4727 19.9754 67.9202 21.6521 70.3615 21.6521C71.3259 21.6521 72.1912 21.2916 72.6166 20.6912V21.773C72.6166 22.5374 72.1098 23.0747 71.4241 23.0747H67.6324V24.8506H71.784C73.6459 24.8506 74.8875 23.7274 74.8875 22.0163V13.3153H72.6002V14.1303ZM70.7215 19.6978C69.5112 19.6978 68.7114 18.7963 68.7114 17.4189C68.7114 16.0414 69.5112 15.1237 70.7215 15.1237C71.9323 15.1237 72.7465 16.0252 72.7465 17.4189C72.7465 18.8125 71.9467 19.6978 70.7215 19.6978Z" fill="#0A0B0D"/>
<path d="M80.6146 21.6521C83.1483 21.6521 84.9578 19.8601 84.9578 17.4189C84.9578 14.9776 83.1483 13.1855 80.6146 13.1855C78.0814 13.1855 76.2715 14.9759 76.2715 17.4189C76.2715 19.8618 78.0814 21.6521 80.6146 21.6521ZM80.6146 19.6978C79.388 19.6978 78.5554 18.7692 78.5554 17.4189C78.5554 16.0684 79.388 15.1237 80.6146 15.1237C81.8418 15.1237 82.6743 16.0504 82.6743 17.4189C82.6743 18.7873 81.8398 19.6978 80.6146 19.6978Z" fill="#0A0B0D"/>
<path d="M88.4924 21.5224V17.0276C88.4924 15.9693 89.1945 15.2049 90.1916 15.2049C91.1401 15.2049 91.7768 15.926 91.7768 16.914V21.5224H94.0641V16.4092C94.0641 14.5197 92.8557 13.1855 90.9881 13.1855C89.8605 13.1855 88.9467 13.6579 88.489 14.4476V13.3153H86.2051V21.5224H88.4924Z" fill="#0A0B0D"/>
</svg>
