<svg width="62" height="15" viewBox="0 0 62 15" fill="none" xmlns="http://www.w3.org/2000/svg">
<path d="M4.79079 2.23849H0V0H12.3222V2.23849H7.5523V14.6444H4.79079V2.23849Z" fill="#EAFFD9"/>
<path d="M18.7662 12.4895C18.4036 13.3264 17.8736 13.954 17.1762 14.3724C16.4789 14.7908 15.6769 15 14.7704 15C14.0172 15 13.3408 14.8605 12.7411 14.5816C12.1414 14.3026 11.6672 13.8842 11.3185 13.3264C10.9698 12.7685 10.7955 12.099 10.7955 11.318C10.7955 10.0907 11.2069 9.17713 12.0298 8.57741C12.8666 7.97769 13.9126 7.67782 15.1679 7.67782H17.0298C17.5877 7.67782 18.0061 7.57322 18.285 7.36402C18.5639 7.14086 18.7034 6.82706 18.7034 6.4226C18.7034 5.9205 18.4942 5.53696 18.0758 5.27197C17.6713 5.00697 17.1483 4.87448 16.5068 4.87448C15.7536 4.87448 15.1539 5.04881 14.7076 5.39749C14.2752 5.74616 14.0381 6.23431 13.9963 6.86193H11.2348C11.3185 5.5788 11.7927 4.58159 12.6574 3.87029C13.5221 3.14505 14.7913 2.78243 16.4649 2.78243C17.5946 2.78243 18.5221 2.94979 19.2474 3.28452C19.9726 3.61925 20.5026 4.08647 20.8373 4.68619C21.172 5.28591 21.3394 5.98326 21.3394 6.77824V11.7155C21.3394 11.9944 21.3952 12.1967 21.5068 12.3222C21.6323 12.4338 21.8345 12.4895 22.1135 12.4895H22.5528V14.6444H20.7536C20.126 14.6444 19.6448 14.4979 19.3101 14.205C18.9754 13.8982 18.808 13.4728 18.808 12.9289V12.4895H18.7662ZM15.5863 12.8661C16.1302 12.8661 16.6393 12.7476 17.1135 12.5105C17.5877 12.2734 17.9712 11.9038 18.2641 11.4017C18.557 10.8856 18.7034 10.251 18.7034 9.49791V8.43096H18.6616C18.4663 8.79358 18.1944 9.06555 17.8457 9.24686C17.497 9.41423 17.0298 9.51185 16.444 9.53975L15.5863 9.58159C14.9308 9.60948 14.4356 9.76988 14.1009 10.0628C13.7801 10.3556 13.6197 10.7392 13.6197 11.2134C13.6197 11.7015 13.7801 12.099 14.1009 12.4059C14.4217 12.7127 14.9168 12.8661 15.5863 12.8661Z" fill="#EAFFD9"/>
<path d="M24.1112 0H26.7472V14.6444H24.1112V0Z" fill="#EAFFD9"/>
<path d="M34.2995 15C33.1698 15 32.1726 14.7559 31.3079 14.2678C30.4431 13.7796 29.7737 13.0753 29.2995 12.1548C28.8253 11.2343 28.5882 10.1464 28.5882 8.89121C28.5882 7.63598 28.8253 6.54812 29.2995 5.62762C29.7876 4.70711 30.4571 4.00279 31.3079 3.51464C32.1726 3.0265 33.1628 2.78243 34.2786 2.78243C35.3385 2.78243 36.2869 2.99861 37.1238 3.43096C37.9606 3.86332 38.6161 4.50488 39.0903 5.35565C39.5645 6.20642 39.8016 7.23849 39.8016 8.45188V9.64435H31.3915C31.4334 10.2999 31.5728 10.8787 31.8099 11.3808C32.061 11.8689 32.4027 12.2455 32.8351 12.5105C33.2674 12.7755 33.7695 12.908 34.3413 12.908C34.9829 12.908 35.5268 12.7476 35.9731 12.4268C36.4194 12.106 36.7402 11.6667 36.9355 11.1088H39.6551C39.4878 11.8759 39.16 12.5523 38.6719 13.1381C38.1977 13.7238 37.584 14.1841 36.8309 14.5188C36.0777 14.8396 35.2339 15 34.2995 15ZM37.1447 7.74059C37.1447 7.16876 37.0331 6.66667 36.8099 6.23431C36.5868 5.80195 36.266 5.46722 35.8476 5.23013C35.4292 4.99303 34.9271 4.87448 34.3413 4.87448C33.7556 4.87448 33.2535 5 32.8351 5.25105C32.4166 5.50209 32.0889 5.84379 31.8518 6.27615C31.6147 6.69456 31.4682 7.18271 31.4125 7.74059H37.1447Z" fill="#EAFFD9"/>
<path d="M41.5994 3.13808H44.1936V4.8954H44.2354C44.5841 4.21199 45.0583 3.68898 45.658 3.32636C46.2717 2.96374 46.976 2.78243 47.771 2.78243C48.552 2.78243 49.2354 2.96374 49.8212 3.32636C50.407 3.67504 50.8602 4.19805 51.181 4.8954C51.5018 5.59275 51.6622 6.43654 51.6622 7.42678V14.6444H49.0262V7.74059C49.0262 6.77824 48.831 6.06695 48.4404 5.6067C48.0639 5.1325 47.5339 4.8954 46.8505 4.8954C46.3763 4.8954 45.9439 5.00697 45.5534 5.23013C45.1629 5.43933 44.8421 5.78103 44.5911 6.25523C44.354 6.72943 44.2354 7.32915 44.2354 8.05439V14.6444H41.5994V3.13808Z" fill="#EAFFD9"/>
<path d="M58.0864 14.6444C57.0543 14.6444 56.2733 14.3863 55.7433 13.8703C55.2133 13.3403 54.9483 12.5593 54.9483 11.5272V0H57.6053V11.1297C57.6053 11.6039 57.7168 11.9526 57.94 12.1757C58.1771 12.3849 58.5258 12.4895 58.986 12.4895H61.1408V14.6444H58.0864ZM52.7308 3.13808H61.0781V5.29289H52.7308V3.13808Z" fill="#EAFFD9"/>
</svg>
