<svg width="151" height="17" viewBox="0 0 151 17" fill="none" xmlns="http://www.w3.org/2000/svg">
<path d="M4.91869 16.6378H7.75392V4.00501H12.6511V1.72556H0V4.00501H4.91869V16.6378Z" fill="#EAFFD9"/>
<path d="M19.0314 14.4436H19.0744V14.891C19.0744 15.9987 19.7832 16.6378 21.0719 16.6378H22.9191V14.4436H22.4681C21.8881 14.4436 21.6733 14.2306 21.6733 13.6554V8.62782C21.6733 6.26316 20.2557 4.5589 16.6687 4.5589C13.1247 4.5589 11.4708 6.19925 11.299 8.71303H14.1342C14.2201 7.41353 15.1867 6.68922 16.7117 6.68922C17.9789 6.68922 18.967 7.2005 18.967 8.26566C18.967 9.07519 18.43 9.54386 17.2487 9.54386H15.337C12.9958 9.54386 10.8479 10.5664 10.8479 13.2506C10.8479 15.7005 12.6307 17 14.9289 17C16.7546 17 18.2796 16.1905 19.0314 14.4436ZM13.7476 13.1441C13.7476 12.2281 14.349 11.5251 15.7666 11.4825L16.6472 11.4398C17.8715 11.3972 18.5589 11.0351 18.924 10.3108H18.967V11.3972C18.967 13.8258 17.3775 14.8271 15.7666 14.8271C14.349 14.8271 13.7476 14.0602 13.7476 13.1441Z" fill="#EAFFD9"/>
<path d="M24.2834 16.6378H26.9897V0H24.2834V16.6378Z" fill="#EAFFD9"/>
<path d="M34.5079 17C37.429 17 39.491 15.381 40.0065 13.0376H37.2142C36.8491 14.1667 35.8611 14.8697 34.5508 14.8697C32.7466 14.8697 31.6082 13.5489 31.5223 11.5464H40.1569V10.3321C40.1569 6.5614 37.7297 4.5589 34.4864 4.5589C31.0712 4.5589 28.6441 6.88095 28.6441 10.7794C28.6441 14.6566 31.0068 17 34.5079 17ZM31.5438 9.60777C31.7156 7.96742 32.6822 6.68922 34.5508 6.68922C36.398 6.68922 37.429 7.90351 37.429 9.60777H31.5438Z" fill="#EAFFD9"/>
<path d="M41.7879 16.6378H44.4943V9.92732C44.4943 7.58396 45.826 6.71053 47.1792 6.71053C48.5109 6.71053 49.413 7.56266 49.413 9.60777V16.6378H52.1193V9.28822C52.1193 6.17794 50.5299 4.5589 48.1242 4.5589C46.4918 4.5589 45.2031 5.32581 44.4943 6.71053H44.4513V4.92105H41.7879V16.6378Z" fill="#EAFFD9"/>
<path d="M58.4793 16.6378H61.6152V14.4436H59.4029C58.5008 14.4436 57.9853 14.0602 57.9853 13.0589V7.11529H61.5508V4.92105H57.9853V1.72556H55.2575V4.92105H52.9807V7.11529H55.2575V13.4637C55.2575 15.594 56.3744 16.6378 58.4793 16.6378Z" fill="#EAFFD9"/>
<path d="M67.448 16.6378H70.2832V11.0138H74.2139C77.2209 11.0138 79.3903 9.35213 79.3903 6.39098C79.3903 3.45113 77.2209 1.72556 74.2139 1.72556H67.448V16.6378ZM70.2832 8.73434V4.00501H73.6124C75.3737 4.00501 76.4692 4.94236 76.4692 6.39098C76.4692 7.8396 75.3737 8.73434 73.6124 8.73434H70.2832Z" fill="#EAFFD9"/>
<path d="M80.9083 16.6378H83.6146V9.90601C83.6146 7.98872 84.3664 7.11529 85.9988 7.11529H87.6312V4.92105H86.4928C84.9248 4.92105 84.1731 5.60276 83.6146 6.77444H83.5717V4.92105H80.9083V16.6378Z" fill="#EAFFD9"/>
<path d="M93.7787 17C97.108 17 99.7714 14.7845 99.7714 10.7794C99.7714 6.77444 97.108 4.5589 93.7787 4.5589C90.4495 4.5589 87.7861 6.77444 87.7861 10.7794C87.7861 14.7845 90.4495 17 93.7787 17ZM90.6857 10.7794C90.6857 8.07394 91.91 6.68922 93.7787 6.68922C95.6474 6.68922 96.8717 8.07394 96.8717 10.7794C96.8717 13.485 95.6474 14.8697 93.7787 14.8697C91.91 14.8697 90.6857 13.485 90.6857 10.7794Z" fill="#EAFFD9"/>
<path d="M105.523 16.6378H108.659V14.4436H106.447C105.545 14.4436 105.029 14.0602 105.029 13.0589V7.11529H108.595V4.92105H105.029V1.72556H102.302V4.92105H100.025V7.11529H102.302V13.4637C102.302 15.594 103.418 16.6378 105.523 16.6378Z" fill="#EAFFD9"/>
<path d="M115.017 17C118.346 17 121.01 14.7845 121.01 10.7794C121.01 6.77444 118.346 4.5589 115.017 4.5589C111.688 4.5589 109.024 6.77444 109.024 10.7794C109.024 14.7845 111.688 17 115.017 17ZM111.924 10.7794C111.924 8.07394 113.148 6.68922 115.017 6.68922C116.886 6.68922 118.11 8.07394 118.11 10.7794C118.11 13.485 116.886 14.8697 115.017 14.8697C113.148 14.8697 111.924 13.485 111.924 10.7794Z" fill="#EAFFD9"/>
<path d="M128.143 17C131.429 17 133.341 14.9123 133.684 12.3985H130.892C130.742 13.5063 129.882 14.8697 128.143 14.8697C126.274 14.8697 125.05 13.3145 125.05 10.7794C125.05 8.39348 126.102 6.68922 128.143 6.68922C129.925 6.68922 130.785 7.94611 130.892 9.39474H133.684C133.426 6.64662 131.536 4.5589 128.143 4.5589C124.384 4.5589 122.15 7.00877 122.15 10.7794C122.15 14.5501 124.556 17 128.143 17Z" fill="#EAFFD9"/>
<path d="M140.639 17C143.968 17 146.632 14.7845 146.632 10.7794C146.632 6.77444 143.968 4.5589 140.639 4.5589C137.31 4.5589 134.646 6.77444 134.646 10.7794C134.646 14.7845 137.31 17 140.639 17ZM137.546 10.7794C137.546 8.07394 138.77 6.68922 140.639 6.68922C142.508 6.68922 143.732 8.07394 143.732 10.7794C143.732 13.485 142.508 14.8697 140.639 14.8697C138.77 14.8697 137.546 13.485 137.546 10.7794Z" fill="#EAFFD9"/>
<path d="M148.294 16.6378H151V0H148.294V16.6378Z" fill="#EAFFD9"/>
</svg>