<svg width="178" height="28" viewBox="0 0 178 28" fill="none" xmlns="http://www.w3.org/2000/svg">
<g filter="url(#filter0_d_3230_16048)">
<path d="M9.808 19H12.976V4.768H18.448V2.2H4.312V4.768H9.808V19ZM25.5771 16.528H25.6251V17.032C25.6251 18.28 26.4171 19 27.8571 19H29.9211V16.528H29.4171C28.7691 16.528 28.5291 16.288 28.5291 15.64V9.976C28.5291 7.312 26.9451 5.392 22.9371 5.392C18.9771 5.392 17.1291 7.24 16.9371 10.072H20.1051C20.2011 8.608 21.2811 7.792 22.9851 7.792C24.4011 7.792 25.5051 8.368 25.5051 9.568C25.5051 10.48 24.9051 11.008 23.5851 11.008H21.4491C18.8331 11.008 16.4331 12.16 16.4331 15.184C16.4331 17.944 18.4251 19.408 20.9931 19.408C23.0331 19.408 24.7371 18.496 25.5771 16.528ZM19.6731 15.064C19.6731 14.032 20.3451 13.24 21.9291 13.192L22.9131 13.144C24.2811 13.096 25.0491 12.688 25.4571 11.872H25.5051V13.096C25.5051 15.832 23.7291 16.96 21.9291 16.96C20.3451 16.96 19.6731 16.096 19.6731 15.064ZM31.4455 19H34.4695V0.256H31.4455V19ZM42.8701 19.408C46.1341 19.408 48.4381 17.584 49.0141 14.944H45.8941C45.4861 16.216 44.3821 17.008 42.9181 17.008C40.9021 17.008 39.6301 15.52 39.5341 13.264H49.1821V11.896C49.1821 7.648 46.4701 5.392 42.8461 5.392C39.0301 5.392 36.3181 8.008 36.3181 12.4C36.3181 16.768 38.9581 19.408 42.8701 19.408ZM39.5581 11.08C39.7501 9.232 40.8301 7.792 42.9181 7.792C44.9821 7.792 46.1341 9.16 46.1341 11.08H39.5581ZM51.0046 19H54.0286V11.44C54.0286 8.8 55.5166 7.816 57.0286 7.816C58.5166 7.816 59.5246 8.776 59.5246 11.08V19H62.5486V10.72C62.5486 7.216 60.7726 5.392 58.0846 5.392C56.2606 5.392 54.8206 6.256 54.0286 7.816H53.9806V5.8H51.0046V19ZM69.655 19H73.159V16.528H70.687C69.679 16.528 69.103 16.096 69.103 14.968V8.272H73.087V5.8H69.103V2.2H66.055V5.8H63.511V8.272H66.055V15.424C66.055 17.824 67.303 19 69.655 19ZM79.6763 19H82.8443V12.664H87.2363C90.5963 12.664 93.0203 10.792 93.0203 7.456C93.0203 4.144 90.5963 2.2 87.2363 2.2H79.6763V19ZM82.8443 10.096V4.768H86.5643C88.5323 4.768 89.7563 5.824 89.7563 7.456C89.7563 9.088 88.5323 10.096 86.5643 10.096H82.8443ZM94.7164 19H97.7404V11.416C97.7404 9.256 98.5804 8.272 100.404 8.272H102.228V5.8H100.956C99.2044 5.8 98.3644 6.568 97.7404 7.888H97.6924V5.8H94.7164V19ZM109.097 19.408C112.817 19.408 115.793 16.912 115.793 12.4C115.793 7.888 112.817 5.392 109.097 5.392C105.377 5.392 102.401 7.888 102.401 12.4C102.401 16.912 105.377 19.408 109.097 19.408ZM105.641 12.4C105.641 9.352 107.009 7.792 109.097 7.792C111.185 7.792 112.553 9.352 112.553 12.4C112.553 15.448 111.185 17.008 109.097 17.008C107.009 17.008 105.641 15.448 105.641 12.4ZM122.221 19H125.725V16.528H123.253C122.245 16.528 121.669 16.096 121.669 14.968V8.272H125.653V5.8H121.669V2.2H118.621V5.8H116.077V8.272H118.621V15.424C118.621 17.824 119.869 19 122.221 19ZM132.828 19.408C136.548 19.408 139.524 16.912 139.524 12.4C139.524 7.888 136.548 5.392 132.828 5.392C129.108 5.392 126.132 7.888 126.132 12.4C126.132 16.912 129.108 19.408 132.828 19.408ZM129.372 12.4C129.372 9.352 130.74 7.792 132.828 7.792C134.916 7.792 136.284 9.352 136.284 12.4C136.284 15.448 134.916 17.008 132.828 17.008C130.74 17.008 129.372 15.448 129.372 12.4ZM147.495 19.408C151.167 19.408 153.303 17.056 153.687 14.224H150.567C150.399 15.472 149.439 17.008 147.495 17.008C145.407 17.008 144.039 15.256 144.039 12.4C144.039 9.712 145.215 7.792 147.495 7.792C149.487 7.792 150.447 9.208 150.567 10.84H153.687C153.399 7.744 151.287 5.392 147.495 5.392C143.295 5.392 140.799 8.152 140.799 12.4C140.799 16.648 143.487 19.408 147.495 19.408ZM161.458 19.408C165.178 19.408 168.154 16.912 168.154 12.4C168.154 7.888 165.178 5.392 161.458 5.392C157.738 5.392 154.762 7.888 154.762 12.4C154.762 16.912 157.738 19.408 161.458 19.408ZM158.002 12.4C158.002 9.352 159.37 7.792 161.458 7.792C163.546 7.792 164.914 9.352 164.914 12.4C164.914 15.448 163.546 17.008 161.458 17.008C159.37 17.008 158.002 15.448 158.002 12.4ZM170.011 19H173.035V0.256H170.011V19Z" fill="#E1C3FF"/>
</g>
<defs>
<filter id="filter0_d_3230_16048" x="0.311996" y="0.255859" width="176.723" height="27.1523" filterUnits="userSpaceOnUse" color-interpolation-filters="sRGB">
<feFlood flood-opacity="0" result="BackgroundImageFix"/>
<feColorMatrix in="SourceAlpha" type="matrix" values="0 0 0 0 0 0 0 0 0 0 0 0 0 0 0 0 0 0 127 0" result="hardAlpha"/>
<feOffset dy="4"/>
<feGaussianBlur stdDeviation="2"/>
<feComposite in2="hardAlpha" operator="out"/>
<feColorMatrix type="matrix" values="0 0 0 0 0 0 0 0 0 0 0 0 0 0 0 0 0 0 0.25 0"/>
<feBlend mode="normal" in2="BackgroundImageFix" result="effect1_dropShadow_3230_16048"/>
<feBlend mode="normal" in="SourceGraphic" in2="effect1_dropShadow_3230_16048" result="shape"/>
</filter>
</defs>
</svg>
