<svg width="16" height="16" viewBox="0 0 16 16" fill="none" xmlns="http://www.w3.org/2000/svg">
<path d="M13.1996 12.9998C11.7996 14.0331 9.69963 14.6665 7.99963 14.6665C5.5663 14.6665 3.39963 13.6998 1.73296 12.1998C1.59963 12.0665 1.73296 11.9331 1.8663 11.9998C3.6663 13.0331 5.69963 13.6331 7.9663 13.6331C9.49963 13.6331 11.433 13.2998 12.9996 12.6331C13.233 12.5665 13.433 12.8331 13.1996 12.9998ZM13.6996 12.2998C13.533 12.0665 12.533 12.1998 12.0996 12.2331C11.9663 12.2331 11.933 12.1331 12.0663 12.0331C12.833 11.4665 14.133 11.6331 14.2663 11.8331C14.3996 12.0331 14.233 13.3331 13.4996 13.9331C13.3996 14.0331 13.2663 13.9665 13.333 13.8665C13.4996 13.4665 13.8663 12.5331 13.6996 12.2998Z" fill="#FFB300"/>
<path d="M12.2999 9.93366C11.9665 9.50032 11.6332 9.13366 11.6332 8.30032V5.53366C11.6332 4.36699 11.6332 3.33366 10.7999 2.53366C10.1332 1.90033 9.0332 1.66699 8.16654 1.66699C6.3332 1.66699 4.7332 2.40033 4.3332 4.46699C4.29987 4.70033 4.46654 4.80033 4.59987 4.83366L6.29987 5.03366C6.46654 5.03366 6.56654 4.86699 6.59987 4.70033C6.7332 4.00033 7.29987 3.66699 7.96654 3.66699C8.3332 3.66699 9.0332 3.86699 9.0332 4.66699V5.66699C7.96654 5.66699 6.8332 5.66699 5.89987 6.06699C4.79987 6.53366 4.0332 7.50032 4.0332 8.93366C4.0332 10.767 5.16654 11.667 6.6332 11.667C7.86654 11.667 8.59987 11.367 9.56654 10.4003C9.86654 10.867 9.99987 11.1337 10.5665 11.6337C10.6999 11.7003 10.8665 11.7003 10.9665 11.6003C11.2999 11.3003 11.9332 10.7337 12.2999 10.4337C12.4665 10.3003 12.4332 10.1003 12.2999 9.93366ZM8.99987 7.36699C8.99987 8.03366 8.96654 9.66699 7.3332 9.66699C6.3332 9.66699 6.3332 8.66699 6.3332 8.66699C6.3332 7.16699 7.7332 7.00033 8.99987 7.00033V7.36699Z" fill="#37474F"/>
</svg>
