<svg width="16" height="16" viewBox="0 0 16 16" fill="none" xmlns="http://www.w3.org/2000/svg">
<path d="M13.6336 5.21825C13.568 5.25932 12.0064 6.12599 12.0064 8.04759C12.08 10.2391 13.977 11.0076 14.0096 11.0076C13.977 11.0487 13.7232 12.0545 12.9712 13.1089C12.3744 14.0172 11.712 14.9329 10.7061 14.9329C9.74932 14.9329 9.40585 14.3276 8.30185 14.3276C7.11625 14.3276 6.78078 14.9329 5.87305 14.9329C4.86718 14.9329 4.15572 13.9681 3.52638 13.0684C2.70878 11.8908 2.01385 10.0428 1.98932 8.26839C1.97278 7.32812 2.15305 6.40385 2.61065 5.61879C3.25652 4.52279 4.40958 3.77879 5.66878 3.75425C6.63358 3.72172 7.49225 4.41665 8.08105 4.41665C8.64532 4.41665 9.70025 3.75425 10.8938 3.75425C11.409 3.75479 12.7829 3.90999 13.6336 5.21825ZM7.99945 3.56652C7.82772 2.70785 8.30185 1.84919 8.74345 1.30145C9.30772 0.639053 10.1989 0.189453 10.9674 0.189453C11.0165 1.04812 10.7056 1.89025 10.1499 2.50359C9.65118 3.16599 8.79252 3.66465 7.99945 3.56652Z" fill="#1E2330"/>
</svg>
