<svg width="16" height="16" viewBox="0 0 16 16" fill="none" xmlns="http://www.w3.org/2000/svg">
<g clip-path="url(#clip0_7003_17605)">
<path d="M4.89433 6.72301L8.00182 3.61678L11.1106 6.72554L12.9177 4.91715L8.00182 0L3.08594 4.91588L4.89433 6.72301Z" fill="#F3BA2F"/>
<path d="M0 8.00077L1.80712 6.19238L3.61551 8.00077L1.80712 9.80789L0 8.00077Z" fill="#F3BA2F"/>
<path d="M4.89433 9.27665L8.00182 12.3841L11.1106 9.27539L12.919 11.0813L8.00309 15.9984L3.08594 11.085L4.89433 9.27665Z" fill="#F3BA2F"/>
<path d="M12.3828 8.00077L14.1899 6.19238L15.9983 7.99951L14.1899 9.80916L12.3828 8.00077Z" fill="#F3BA2F"/>
<path d="M9.83529 7.99899L8.00163 6.16406L6.64566 7.52004L6.48895 7.67548L6.16797 7.99646L8.00163 9.82886L9.83529 8.00025V7.99899Z" fill="#F3BA2F"/>
</g>
<defs>
<clipPath id="clip0_7003_17605">
<rect width="16" height="16" fill="white"/>
</clipPath>
</defs>
</svg>
