<svg width="16" height="16" viewBox="0 0 16 16" fill="none" xmlns="http://www.w3.org/2000/svg">
<path d="M8.00033 1.66699C6.32062 1.66699 4.70971 2.33425 3.52198 3.52198C2.33425 4.70971 1.66699 6.32062 1.66699 8.00033C1.66699 9.68003 2.33425 11.2909 3.52198 12.4787C4.70971 13.6664 6.32062 14.3337 8.00033 14.3337C9.68003 14.3337 11.2909 13.6664 12.4787 12.4787C13.6664 11.2909 14.3337 9.68003 14.3337 8.00033C14.3337 6.32062 13.6664 4.70971 12.4787 3.52198C11.2909 2.33425 9.68003 1.66699 8.00033 1.66699Z" fill="#039BE5"/>
<path d="M8.85702 9.67827H10.496L10.7534 8.01327H8.85668V7.10327C8.85668 6.4116 9.08268 5.79827 9.72968 5.79827H10.7694V4.34527C10.5867 4.3206 10.2004 4.2666 9.47035 4.2666C7.94602 4.2666 7.05235 5.0716 7.05235 6.9056V8.01327H5.48535V9.67827H7.05235V14.2546C7.36268 14.3013 7.67702 14.3329 7.99968 14.3329C8.29135 14.3329 8.57602 14.3063 8.85702 14.2683V9.67827Z" fill="white"/>
</svg>
