<svg width="16" height="16" viewBox="0 0 16 16" fill="none" xmlns="http://www.w3.org/2000/svg">
<path fill-rule="evenodd" clip-rule="evenodd" d="M4.54199 14.033L6.62222 14.5849V13.8632L6.79203 13.6934H7.98071V14.5424V15.1368H6.70713L5.13633 14.4575L4.54199 14.033Z" fill="#CDBDB2"/>
<path fill-rule="evenodd" clip-rule="evenodd" d="M11.335 14.033L9.29722 14.5849V13.8632L9.12741 13.6934H7.93873V14.5424V15.1368H9.21232L10.783 14.4575L11.335 14.033Z" fill="#CDBDB2"/>
<path fill-rule="evenodd" clip-rule="evenodd" d="M6.79286 12.4623L6.62305 13.8632L6.83527 13.6934H9.04282L9.29754 13.8632L9.12773 12.4623L8.7881 12.25L7.08999 12.2925L6.79286 12.4623Z" fill="#393939"/>
<path fill-rule="evenodd" clip-rule="evenodd" d="M5.64648 2.99512L6.66535 5.37248L7.13237 12.2923H8.788L9.29743 5.37248L10.2314 2.99512H5.64648Z" fill="#F89C35"/>
<path fill-rule="evenodd" clip-rule="evenodd" d="M1.18868 8.21694L0 11.6556L2.9717 11.4858H4.88204V9.99996L4.79713 6.94336L4.3726 7.28298L1.18868 8.21694Z" fill="#F89D35"/>
<path fill-rule="evenodd" clip-rule="evenodd" d="M3.43848 8.59863L6.91961 8.68354L6.53757 10.4666L4.88187 10.042L3.43848 8.59863Z" fill="#D87C30"/>
<path fill-rule="evenodd" clip-rule="evenodd" d="M3.43848 8.6416L4.88187 10.0001V11.3586L3.43848 8.6416Z" fill="#EA8D3A"/>
<path fill-rule="evenodd" clip-rule="evenodd" d="M4.88184 10.042L6.57995 10.4665L7.13188 12.292L6.74976 12.5043L4.88184 11.4005V10.042Z" fill="#F89D35"/>
<path fill-rule="evenodd" clip-rule="evenodd" d="M4.88161 11.4014L4.54199 14.0334L6.79203 12.4627L4.88161 11.4014Z" fill="#EB8F35"/>
<path fill-rule="evenodd" clip-rule="evenodd" d="M6.91965 8.68359L7.13195 12.2921L6.49512 10.4454L6.91965 8.68359Z" fill="#EA8E3A"/>
<path fill-rule="evenodd" clip-rule="evenodd" d="M2.92969 11.4439L4.88252 11.4014L4.54289 14.0334L2.92969 11.4439Z" fill="#D87C30"/>
<path fill-rule="evenodd" clip-rule="evenodd" d="M0.933962 15.1792L4.54242 14.0329L2.92921 11.4434L0 11.6556L0.933962 15.1792Z" fill="#EB8F35"/>
<path fill-rule="evenodd" clip-rule="evenodd" d="M6.66489 5.37305L4.83946 6.90135L3.43848 8.59946L6.91961 8.72686L6.66489 5.37305Z" fill="#E8821E"/>
<path fill-rule="evenodd" clip-rule="evenodd" d="M4.54199 14.0326L6.79203 12.4619L6.62222 13.8204V14.5846L5.09392 14.2873L4.54199 14.0326Z" fill="#DFCEC3"/>
<path fill-rule="evenodd" clip-rule="evenodd" d="M11.335 14.0326L9.12741 12.4619L9.29722 13.8204V14.5846L10.8255 14.2873L11.335 14.0326Z" fill="#DFCEC3"/>
<path fill-rule="evenodd" clip-rule="evenodd" d="M5.98611 9.44824L6.45312 10.4247L4.79743 10.0002L5.98611 9.44824Z" fill="#393939"/>
<path fill-rule="evenodd" clip-rule="evenodd" d="M0.891602 1L6.66518 5.3726L5.68881 2.99525L0.891602 1Z" fill="#E88F35"/>
<path fill-rule="evenodd" clip-rule="evenodd" d="M0.891104 1L0.126953 3.33491L0.551481 5.88208L0.254312 6.05189L0.67884 6.43396L0.339217 6.73113L0.806198 7.15566L0.509029 7.41038L1.18827 8.25943L4.37224 7.28302C5.92884 6.03774 6.69299 5.40094 6.66469 5.37264C6.63639 5.34434 4.71186 3.88679 0.891104 1Z" fill="#8E5A30"/>
<path fill-rule="evenodd" clip-rule="evenodd" d="M14.6883 8.21694L15.877 11.6556L12.9053 11.4858H10.9949V9.99996L11.0798 6.94336L11.5043 7.28298L14.6883 8.21694Z" fill="#F89D35"/>
<path fill-rule="evenodd" clip-rule="evenodd" d="M12.4385 8.59863L8.95734 8.68354L9.33938 10.4666L10.9951 10.042L12.4385 8.59863Z" fill="#D87C30"/>
<path fill-rule="evenodd" clip-rule="evenodd" d="M12.4385 8.6416L10.9951 10.0001V11.3586L12.4385 8.6416Z" fill="#EA8D3A"/>
<path fill-rule="evenodd" clip-rule="evenodd" d="M10.9951 10.042L9.297 10.4665L8.74508 12.292L9.12719 12.5043L10.9951 11.4005V10.042Z" fill="#F89D35"/>
<path fill-rule="evenodd" clip-rule="evenodd" d="M10.9953 11.4014L11.335 14.0334L9.12741 12.5051L10.9953 11.4014Z" fill="#EB8F35"/>
<path fill-rule="evenodd" clip-rule="evenodd" d="M8.95731 8.68359L8.74501 12.2921L9.38184 10.4454L8.95731 8.68359Z" fill="#EA8E3A"/>
<path fill-rule="evenodd" clip-rule="evenodd" d="M12.9482 11.4439L10.9954 11.4014L11.335 14.0334L12.9482 11.4439Z" fill="#D87C30"/>
<path fill-rule="evenodd" clip-rule="evenodd" d="M14.943 15.1792L11.3345 14.0329L12.9477 11.4434L15.877 11.6556L14.943 15.1792Z" fill="#EB8F35"/>
<path fill-rule="evenodd" clip-rule="evenodd" d="M9.21206 5.37305L11.0375 6.90135L12.4385 8.59946L8.95734 8.72686L9.21206 5.37305Z" fill="#E8821E"/>
<path fill-rule="evenodd" clip-rule="evenodd" d="M9.89182 9.44824L9.4248 10.4247L11.0805 10.0002L9.89182 9.44824Z" fill="#393939"/>
<path fill-rule="evenodd" clip-rule="evenodd" d="M14.9854 1L9.21177 5.3726L10.1881 2.99525L14.9854 1Z" fill="#E88F35"/>
<path fill-rule="evenodd" clip-rule="evenodd" d="M14.9858 1L15.75 3.33491L15.3255 5.88208L15.6226 6.05189L15.1981 6.43396L15.5377 6.73113L15.0708 7.15566L15.3679 7.41038L14.6887 8.25943L11.5047 7.28302C9.94811 6.03774 9.18396 5.40094 9.21226 5.37264C9.24056 5.34434 11.1651 3.88679 14.9858 1Z" fill="#8E5A30"/>
</svg>
