<svg width="16" height="16" viewBox="0 0 16 16" fill="none" xmlns="http://www.w3.org/2000/svg">
<path fill-rule="evenodd" clip-rule="evenodd" d="M7.51868 4.15331C7.35405 5.31215 7.22245 6.2878 6.98535 7.80722C7.62593 7.7933 9.07984 8.04837 9.39984 5.97186C9.66477 4.24432 8.4839 4.08432 7.51868 4.15331Z" fill="url(#paint0_linear_5976_17605)"/>
<path fill-rule="evenodd" clip-rule="evenodd" d="M13.067 12.5075C13.3162 13.0623 13.0652 13.7637 12.5452 14.0461C12.2467 14.2084 11.9058 14.3591 11.5655 14.4437C11.0037 14.5779 10.4293 14.6525 9.8519 14.6663C8.92842 14.6663 8.00263 14.1376 7.60379 13.4942C7.5006 13.7162 7.12843 14.1626 6.47625 14.3724C6.06408 14.5058 5.56727 14.6663 4.53017 14.6652C3.6009 14.6646 3.07104 14.2432 2.79104 13.8895C2.34467 13.3272 2.27916 12.613 2.36611 12.1319L2.37075 12.1087C2.72148 10.3492 3.2009 7.15041 3.42177 5.54751L3.42408 5.53186C3.48437 5.08722 3.54582 4.64259 3.58234 4.19505C3.60032 3.96954 3.61249 3.74288 3.61481 3.51679C3.61713 3.30288 3.59742 3.08955 3.59916 2.87563C3.60148 2.67389 3.63394 2.46984 3.72843 2.29129C3.88205 2.00317 4.16321 1.77592 4.4606 1.67679C4.78698 1.56781 5.12785 1.52433 5.46698 1.48491C5.81371 1.44336 6.16121 1.40857 6.5093 1.38056C6.93371 1.34937 7.3591 1.33352 7.78466 1.33303C8.51277 1.33245 9.24553 1.34462 9.96321 1.49245C10.6942 1.64317 11.4328 1.93129 12.0096 2.43621C12.4049 2.7823 12.7186 3.21882 12.9545 3.6965C13.1609 4.11737 13.2449 4.56027 13.2948 4.89882C13.3835 5.50643 13.3601 6.12514 13.2258 6.72432C13.1197 7.16119 12.9408 7.57706 12.6965 7.95447C12.4218 8.38113 12.0693 8.76838 11.62 9.13707C11.8936 9.93128 12.6067 11.4826 13.067 12.5075ZM4.88959 2.95621C4.90698 3.2507 4.9093 3.54752 4.89655 3.84317C4.88379 4.1452 4.85771 4.44607 4.82408 4.74636C4.79104 5.04549 4.75104 5.34346 4.71046 5.64143L4.69713 5.73882C4.56959 6.67041 4.4351 7.60084 4.29423 8.52954C4.14582 9.50577 3.97945 10.4768 3.81307 11.449C3.73597 11.9023 3.56263 12.4832 3.79974 12.9156C4.01075 13.3017 4.5522 13.3487 4.92959 13.3098C6.30408 13.1695 6.52263 12.864 6.52263 12.864C6.24843 12.5603 6.48669 11.1759 6.76263 9.31504H7.73944L8.76205 12.4078C8.76205 12.4078 9.0635 13.3661 9.90118 13.3197C10.9742 13.2605 11.7638 13.0153 11.8774 12.8791C11.547 12.6947 10.602 10.3319 10.0873 8.59678C10.3365 8.4449 10.5783 8.27968 10.8061 8.09476C11.1174 7.84084 11.4061 7.54809 11.627 7.20432C11.7858 6.95737 11.907 6.68548 11.9765 6.39679C12.0131 6.24432 12.0333 6.0849 12.0461 5.92896C12.0693 5.65418 12.0606 5.37592 12.0206 5.10346C11.9823 4.84143 11.9249 4.54983 11.8078 4.31331C11.5904 3.87099 11.2826 3.48491 10.8629 3.23795C10.1545 2.82172 9.33828 2.7423 8.54234 2.69882C7.67911 2.65082 6.81334 2.67915 5.9551 2.78346C5.85886 2.79505 4.88553 2.88085 4.88959 2.95621Z" fill="url(#paint1_linear_5976_17605)"/>
<defs>
<linearGradient id="paint0_linear_5976_17605" x1="2.05673" y1="15.9068" x2="14.592" y2="4.06389" gradientUnits="userSpaceOnUse">
<stop offset="0.113" stop-color="#0D59EC"/>
<stop offset="0.742" stop-color="#008FE1"/>
<stop offset="1" stop-color="#20AFFF"/>
</linearGradient>
<linearGradient id="paint1_linear_5976_17605" x1="2.0572" y1="15.9068" x2="14.5925" y2="4.06389" gradientUnits="userSpaceOnUse">
<stop offset="0.113" stop-color="#0D59EC"/>
<stop offset="0.742" stop-color="#008FE1"/>
<stop offset="1" stop-color="#20AFFF"/>
</linearGradient>
</defs>
</svg>
