<svg width="16" height="16" viewBox="0 0 16 16" fill="none" xmlns="http://www.w3.org/2000/svg">
<path d="M8.00065 1.33301C4.30832 1.33301 1.33398 4.30734 1.33398 7.99967C1.33398 11.692 4.30832 14.6663 8.00065 14.6663C11.6927 14.6663 14.6673 11.692 14.6673 7.99967C14.6673 4.30734 11.6927 1.33301 8.00065 1.33301Z" fill="url(#paint0_linear_5976_17609)"/>
<path opacity="0.05" d="M7.07456 5.31283C8.92589 5.31283 10.8746 5.70283 12.3362 6.53083C12.5309 6.62849 12.6769 6.82316 12.6769 7.11549C12.6286 7.45649 12.3846 7.70049 12.0439 7.70049C11.8979 7.70049 11.8489 7.65183 11.7029 7.60349C10.5336 6.92116 8.77989 6.53116 7.07456 6.53116C6.19756 6.53116 5.32056 6.62883 4.54123 6.82349C4.44356 6.82349 4.34623 6.87216 4.20023 6.87216C4.17523 6.87583 4.15056 6.87749 4.12656 6.87749C3.82489 6.87749 3.61556 6.60383 3.61556 6.28749C3.61556 5.94649 3.81056 5.75183 4.05389 5.70283C4.97956 5.41049 5.95389 5.31283 7.07456 5.31283ZM6.92823 7.45649C8.58489 7.45649 10.1926 7.84649 11.4592 8.62549C11.6539 8.72249 11.7516 8.91783 11.7516 9.11249C11.7516 9.40516 11.5566 9.64849 11.2642 9.64849C11.1182 9.64849 11.0209 9.60049 10.9232 9.55149C9.90056 8.91816 8.48723 8.52783 6.87989 8.52783C6.10023 8.52783 5.36956 8.62549 4.83356 8.77216C4.68723 8.82016 4.63856 8.82016 4.54123 8.82016C4.24889 8.82016 4.05389 8.57683 4.05389 8.33316C4.05389 8.04083 4.20023 7.89449 4.44356 7.79749C5.17423 7.60283 5.90523 7.45649 6.92823 7.45649ZM7.07423 9.55149C8.43856 9.55149 9.70523 9.89183 10.7769 10.5262C10.9229 10.6232 11.0206 10.7208 11.0206 10.9642C10.9719 11.1595 10.7769 11.3052 10.5822 11.3052C10.4849 11.3052 10.3872 11.2568 10.2899 11.2078C9.36423 10.6722 8.24356 10.3798 7.02589 10.3798C6.34356 10.3798 5.66156 10.4768 5.02823 10.6232C4.93089 10.6232 4.78456 10.6718 4.73589 10.6718C4.49223 10.6718 4.34623 10.4765 4.34623 10.2818C4.34623 10.0385 4.49223 9.89183 4.68723 9.84383C5.46656 9.64849 6.24623 9.55149 7.07423 9.55149ZM7.07456 4.97949C5.81156 4.97949 4.85256 5.10316 3.96889 5.38016C3.55089 5.47316 3.28223 5.82716 3.28223 6.28749C3.28223 6.80516 3.65289 7.21083 4.12656 7.21083C4.15823 7.21083 4.19056 7.20916 4.22356 7.20516C4.32989 7.20283 4.41489 7.18349 4.47823 7.16949C4.50089 7.16449 4.52156 7.15783 4.54256 7.15683H4.58356L4.62223 7.14683C5.36189 6.96216 6.20989 6.86449 7.07489 6.86449C8.76589 6.86449 10.4332 7.24849 11.5352 7.89149L11.5652 7.90916L11.5982 7.92016C11.6346 7.93216 11.6632 7.94449 11.6892 7.95516C11.7729 7.99016 11.8769 8.03383 12.0442 8.03383C12.5386 8.03383 12.9346 7.67549 13.0072 7.16216L13.0106 7.13883V7.11516C13.0106 6.72483 12.8226 6.40516 12.4942 6.23683C11.0792 5.43783 9.10456 4.97949 7.07456 4.97949ZM6.92823 7.12316C5.83123 7.12316 5.04456 7.29249 4.35789 7.47549L4.33856 7.48049L4.32023 7.48783C3.92223 7.64649 3.72056 7.93083 3.72056 8.33316C3.72056 8.78549 4.08856 9.15349 4.54123 9.15349C4.66489 9.15349 4.74989 9.15049 4.93756 9.08883C5.46156 8.94583 6.17556 8.86116 6.87989 8.86116C8.36023 8.86116 9.73389 9.20683 10.7476 9.83483L10.7602 9.84283L10.7736 9.84949C10.8849 9.90549 11.0376 9.98183 11.2639 9.98183C11.7319 9.98183 12.0846 9.60816 12.0846 9.11249C12.0846 8.78049 11.9079 8.48383 11.6222 8.33449C10.3466 7.55316 8.67989 7.12316 6.92823 7.12316ZM7.07423 9.21816C6.22523 9.21816 5.41789 9.31716 4.60623 9.52049C4.24089 9.61049 4.01289 9.90216 4.01289 10.2818C4.01289 10.6875 4.33056 11.0052 4.73589 11.0052C4.79323 11.0052 4.84723 10.9928 4.90989 10.9788C4.94356 10.9712 5.00589 10.9572 5.02889 10.9565L5.06256 10.9555L5.10323 10.9478C5.77756 10.7922 6.42423 10.7132 7.02589 10.7132C8.16656 10.7132 9.23756 10.9838 10.1229 11.4965L10.1312 11.5015L10.1399 11.5058C10.2512 11.5618 10.4039 11.6388 10.5822 11.6388C10.9322 11.6388 11.2596 11.3835 11.3439 11.0452L11.3539 11.0055V10.9645C11.3539 10.5638 11.1556 10.3778 10.9612 10.2488L10.9539 10.2442L10.9466 10.2398C9.81823 9.57116 8.47889 9.21816 7.07423 9.21816Z" fill="black"/>
<path opacity="0.07" d="M7.07489 5.31315C8.92622 5.31315 10.8749 5.70315 12.3366 6.53115C12.5312 6.62882 12.6772 6.82348 12.6772 7.11582C12.6289 7.45682 12.3849 7.70082 12.0442 7.70082C11.8982 7.70082 11.8492 7.65215 11.7032 7.60382C10.5339 6.92148 8.78022 6.53148 7.07489 6.53148C6.19789 6.53148 5.32089 6.62915 4.54155 6.82382C4.44389 6.82382 4.34655 6.87248 4.20055 6.87248C4.17555 6.87615 4.15089 6.87782 4.12689 6.87782C3.82522 6.87782 3.61589 6.60415 3.61589 6.28782C3.61589 5.94682 3.81089 5.75215 4.05422 5.70315C4.97989 5.41082 5.95422 5.31315 7.07489 5.31315ZM6.92855 7.45682C8.58522 7.45682 10.1929 7.84682 11.4596 8.62582C11.6542 8.72282 11.7519 8.91815 11.7519 9.11282C11.7519 9.40548 11.5569 9.64882 11.2646 9.64882C11.1186 9.64882 11.0212 9.60082 10.9236 9.55182C9.90089 8.91848 8.48755 8.52815 6.88022 8.52815C6.10055 8.52815 5.36989 8.62582 4.83389 8.77248C4.68755 8.82048 4.63889 8.82048 4.54155 8.82048C4.24922 8.82048 4.05422 8.57715 4.05422 8.33348C4.05422 8.04115 4.20055 7.89482 4.44389 7.79782C5.17455 7.60315 5.90555 7.45682 6.92855 7.45682ZM7.07455 9.55182C8.43889 9.55182 9.70555 9.89215 10.7772 10.5265C10.9232 10.6235 11.0209 10.7212 11.0209 10.9645C10.9722 11.1598 10.7772 11.3055 10.5826 11.3055C10.4852 11.3055 10.3876 11.2572 10.2902 11.2082C9.36455 10.6725 8.24389 10.3802 7.02622 10.3802C6.34389 10.3802 5.66189 10.4772 5.02855 10.6235C4.93122 10.6235 4.78489 10.6722 4.73622 10.6722C4.49255 10.6722 4.34655 10.4768 4.34655 10.2822C4.34655 10.0388 4.49255 9.89215 4.68755 9.84415C5.46689 9.64882 6.24655 9.55182 7.07455 9.55182ZM7.07489 5.14648C5.82589 5.14648 4.88089 5.26848 4.01222 5.54182C3.66489 5.61582 3.44922 5.90115 3.44922 6.28782C3.44922 6.71215 3.74689 7.04448 4.12689 7.04448C4.15489 7.04448 4.18322 7.04282 4.21255 7.03915C4.30589 7.03782 4.38122 7.02082 4.44222 7.00715C4.48189 6.99815 4.51622 6.99048 4.54189 6.99048H4.56222L4.58222 6.98548C5.33489 6.79748 6.19689 6.69815 7.07522 6.69815C8.79455 6.69815 10.4932 7.09048 11.6196 7.74782L11.6346 7.75648L11.6512 7.76182C11.6922 7.77548 11.7249 7.78915 11.7542 7.80148C11.8312 7.83382 11.9109 7.86715 12.0446 7.86715C12.4602 7.86715 12.7809 7.57448 12.8426 7.13882L12.8442 7.12715V7.11548C12.8442 6.78715 12.6866 6.51982 12.4116 6.38182C11.0279 5.59848 9.08022 5.14648 7.07489 5.14648ZM6.92855 7.29015C5.91055 7.29015 5.18189 7.42882 4.40089 7.63682L4.39122 7.63948L4.38189 7.64315C4.16955 7.72782 3.88722 7.89148 3.88722 8.33348C3.88722 8.64782 4.13722 8.98715 4.54122 8.98715C4.65455 8.98715 4.72155 8.98448 4.88555 8.93082C5.43122 8.78182 6.16122 8.69482 6.87989 8.69482C8.39089 8.69482 9.79555 9.04948 10.8356 9.69348C10.9506 9.75182 11.0772 9.81548 11.2642 9.81548C11.6372 9.81548 11.9182 9.51348 11.9182 9.11282C11.9182 8.83848 11.7709 8.59482 11.5336 8.47648C10.2952 7.71415 8.65522 7.29015 6.92855 7.29015ZM7.07455 9.38515C6.23922 9.38515 5.44522 9.48248 4.64689 9.68248C4.35889 9.75348 4.17989 9.98315 4.17989 10.2822C4.17989 10.5558 4.38789 10.8388 4.73622 10.8388C4.77489 10.8388 4.81822 10.8292 4.87322 10.8165C4.92255 10.8055 4.99022 10.7902 5.02855 10.7902H5.04755L5.06622 10.7858C5.75289 10.6272 6.41222 10.5468 7.02622 10.5468C8.19622 10.5468 9.29589 10.8255 10.2069 11.3525C10.3172 11.4085 10.4442 11.4722 10.5826 11.4722C10.8582 11.4722 11.1162 11.2712 11.1826 11.0048L11.1876 10.9848V10.9645C11.1876 10.6272 11.0232 10.4898 10.8696 10.3878C9.75922 9.73015 8.44955 9.38515 7.07455 9.38515Z" fill="black"/>
<path d="M10.5819 11.3048C10.4846 11.3048 10.3869 11.2565 10.2896 11.2075C9.3639 10.6718 8.24323 10.3795 7.02557 10.3795C6.34323 10.3795 5.66123 10.4765 5.0279 10.6228C4.93057 10.6228 4.78423 10.6715 4.73557 10.6715C4.4919 10.6715 4.3459 10.4762 4.3459 10.2815C4.3459 10.0382 4.4919 9.8915 4.6869 9.8435C5.46623 9.64817 6.2459 9.55117 7.0739 9.55117C8.43823 9.55117 9.7049 9.8915 10.7766 10.5258C10.9226 10.6228 11.0202 10.7205 11.0202 10.9638C10.9716 11.1592 10.7766 11.3048 10.5819 11.3048ZM11.2639 9.64817C11.1179 9.64817 11.0206 9.60017 10.9229 9.55117C9.90023 8.91783 8.4869 8.5275 6.87957 8.5275C6.0999 8.5275 5.36923 8.62517 4.83323 8.77183C4.6869 8.81983 4.63823 8.81983 4.5409 8.81983C4.24857 8.81983 4.05357 8.5765 4.05357 8.33283C4.05357 8.0405 4.1999 7.89417 4.44323 7.79717C5.1739 7.6025 5.9049 7.45617 6.9279 7.45617C8.58457 7.45617 10.1922 7.84617 11.4589 8.62517C11.6536 8.72217 11.7512 8.9175 11.7512 9.11217C11.7512 9.40483 11.5562 9.64817 11.2639 9.64817ZM12.0436 7.70017C11.8976 7.70017 11.8486 7.6515 11.7026 7.60317C10.5332 6.92083 8.77957 6.53083 7.07423 6.53083C6.19723 6.53083 5.32023 6.6285 4.5409 6.82317C4.44323 6.82317 4.3459 6.87183 4.1999 6.87183C3.8589 6.9205 3.61523 6.6285 3.61523 6.28717C3.61523 5.94617 3.81023 5.7515 4.05357 5.7025C4.97923 5.41017 5.95357 5.3125 7.07423 5.3125C8.92557 5.3125 10.8742 5.7025 12.3359 6.5305C12.5306 6.62817 12.6766 6.82283 12.6766 7.11517C12.6282 7.45617 12.3842 7.70017 12.0436 7.70017Z" fill="white"/>
<defs>
<linearGradient id="paint0_linear_5976_17609" x1="8.00065" y1="-1.58866" x2="8.00065" y2="18.7697" gradientUnits="userSpaceOnUse">
<stop stop-color="#4CAF50"/>
<stop offset="0.489" stop-color="#4AAF50"/>
<stop offset="0.665" stop-color="#43AD50"/>
<stop offset="0.79" stop-color="#38AA50"/>
<stop offset="0.892" stop-color="#27A550"/>
<stop offset="0.978" stop-color="#11A050"/>
<stop offset="1" stop-color="#0A9E50"/>
</linearGradient>
</defs>
</svg>
