<svg width="14" height="16" viewBox="0 0 14 16" fill="none" xmlns="http://www.w3.org/2000/svg">
<g clip-path="url(#clip0_7003_17597)">
<path d="M5.4506 3.64042C5.27723 3.61565 5.26897 3.6074 5.35153 3.59914C5.50839 3.57437 5.87165 3.6074 6.12759 3.66519C6.72201 3.80554 7.25865 4.1688 7.82831 4.80451L7.97692 4.97788L8.19157 4.94486C9.10798 4.79625 10.0492 4.91183 10.8335 5.2751C11.0481 5.37417 11.3866 5.57231 11.4279 5.62184C11.4444 5.63836 11.4692 5.74568 11.4857 5.85301C11.5435 6.24104 11.5187 6.53 11.3949 6.75291C11.3288 6.87675 11.3288 6.90977 11.3701 7.0171C11.4031 7.09966 11.5022 7.15745 11.593 7.15745C11.7912 7.15745 11.9976 6.84372 12.0966 6.40616L12.1379 6.23278L12.2122 6.31534C12.6333 6.78593 12.9635 7.43815 13.013 7.90048L13.0295 8.02432L12.9552 7.917C12.8314 7.72711 12.7158 7.60327 12.559 7.49594C12.2783 7.30606 11.981 7.24826 11.1967 7.20698C10.4867 7.1657 10.0822 7.10791 9.6859 6.97582C9.00891 6.75291 8.66216 6.46395 7.86133 5.39893C7.50633 4.92835 7.28342 4.67241 7.06051 4.45776C6.57341 3.98717 6.08631 3.73949 5.4506 3.64042Z" fill="#FF007A"/>
<path d="M11.5994 4.68923C11.6159 4.3755 11.6572 4.1691 11.748 3.97922C11.781 3.90491 11.8141 3.83887 11.8223 3.83887C11.8306 3.83887 11.8141 3.89666 11.7893 3.96271C11.7232 4.14434 11.715 4.40027 11.7563 4.68923C11.8141 5.06075 11.8388 5.11028 12.2351 5.51482C12.4167 5.70471 12.6314 5.94413 12.714 6.0432L12.8543 6.22483L12.714 6.09274C12.5406 5.92762 12.1443 5.61389 12.0535 5.57261C11.9957 5.53959 11.9874 5.53959 11.9462 5.58087C11.9131 5.61389 11.9049 5.66343 11.9049 5.90285C11.8966 6.27437 11.8471 6.50553 11.7232 6.74496C11.6572 6.86879 11.6489 6.84403 11.7067 6.70368C11.748 6.59635 11.7563 6.54681 11.7563 6.19181C11.7563 5.47354 11.6737 5.30017 11.1701 5.01121C11.0463 4.93691 10.8316 4.82958 10.7078 4.77179C10.5757 4.714 10.4766 4.66446 10.4849 4.66446C10.5014 4.64795 10.9885 4.7883 11.1784 4.87086C11.4673 4.98644 11.5168 4.9947 11.5499 4.98644C11.5746 4.96167 11.5912 4.89563 11.5994 4.68923Z" fill="#FF007A"/>
<path d="M5.78871 5.9191C5.44196 5.44026 5.21905 4.69723 5.26859 4.14408L5.2851 3.9707L5.36766 3.98722C5.51627 4.01198 5.7722 4.11105 5.89604 4.18536C6.22628 4.3835 6.37489 4.65595 6.51524 5.33293C6.55652 5.53107 6.61431 5.76224 6.63908 5.83654C6.68035 5.96038 6.83722 6.24934 6.96931 6.43097C7.06013 6.56307 7.00234 6.62911 6.79594 6.6126C6.48221 6.57958 6.06116 6.29062 5.78871 5.9191Z" fill="#FF007A"/>
<path d="M11.1774 9.51061C9.54276 8.85013 8.96484 8.28047 8.96484 7.31453C8.96484 7.17418 8.9731 7.05859 8.9731 7.05859C8.98136 7.05859 9.03915 7.10813 9.11345 7.16592C9.44369 7.43011 9.8152 7.54569 10.8472 7.6943C11.4499 7.78512 11.7966 7.85116 12.1104 7.95849C13.1093 8.28873 13.7285 8.96571 13.8771 9.88212C13.9184 10.1463 13.8936 10.6499 13.8276 10.9141C13.7698 11.1205 13.6047 11.5003 13.5634 11.5085C13.5551 11.5085 13.5386 11.4673 13.5386 11.4012C13.5221 11.0545 13.3487 10.7242 13.0598 10.4683C12.713 10.1711 12.2672 9.94817 11.1774 9.51061Z" fill="#FF007A"/>
<path d="M10.0213 9.78309C10.0047 9.65925 9.96346 9.50239 9.93869 9.43634L9.89741 9.3125L9.97171 9.40332C10.079 9.52715 10.1616 9.67576 10.2359 9.88216C10.2937 10.039 10.2937 10.0886 10.2937 10.3445C10.2937 10.5922 10.2854 10.65 10.2359 10.7903C10.1533 11.0132 10.0543 11.1701 9.88916 11.3435C9.59194 11.6489 9.20391 11.814 8.65077 11.8884C8.55169 11.8966 8.27099 11.9214 8.02331 11.9379C7.40412 11.9709 6.99132 12.037 6.61981 12.1691C6.57027 12.1856 6.52073 12.2021 6.51248 12.1938C6.49597 12.1773 6.7519 12.0287 6.9583 11.9296C7.24726 11.7893 7.54447 11.715 8.19669 11.5994C8.51867 11.5499 8.84891 11.4838 8.93147 11.4508C9.7488 11.1949 10.1533 10.5591 10.0213 9.78309Z" fill="#FF007A"/>
<path d="M10.7757 11.1124C10.561 10.6418 10.5115 10.196 10.6271 9.77494C10.6436 9.73366 10.6601 9.69238 10.6766 9.69238C10.6931 9.69238 10.7427 9.71715 10.7922 9.75017C10.8913 9.81622 11.0977 9.9318 11.6261 10.2208C12.2948 10.584 12.6746 10.8647 12.9387 11.1867C13.1699 11.4674 13.3103 11.7894 13.3763 12.1857C13.4176 12.4086 13.3928 12.9452 13.335 13.1681C13.1534 13.8699 12.7406 14.4313 12.1379 14.7533C12.0471 14.8028 11.9728 14.8358 11.9645 14.8358C11.9563 14.8358 11.9893 14.7533 12.0389 14.6542C12.237 14.2331 12.2618 13.8286 12.1132 13.3745C12.0223 13.0938 11.8325 12.7553 11.4527 12.1857C10.9986 11.5252 10.8913 11.3518 10.7757 11.1124Z" fill="#FF007A"/>
<path d="M4.62259 13.6391C5.23353 13.1273 5.98482 12.764 6.67832 12.6484C6.97553 12.5989 7.47089 12.6154 7.74334 12.6897C8.1809 12.8053 8.57719 13.053 8.78358 13.3584C8.98173 13.6557 9.07254 13.9116 9.16336 14.4812C9.19638 14.7042 9.23766 14.9353 9.24592 14.9849C9.31196 15.2821 9.44406 15.5132 9.60918 15.6371C9.86511 15.827 10.3109 15.8352 10.7485 15.6701C10.8228 15.6453 10.8888 15.6206 10.8888 15.6288C10.9054 15.6453 10.6824 15.7939 10.5338 15.8682C10.3274 15.9756 10.1623 16.0086 9.93941 16.0086C9.54313 16.0086 9.20464 15.8022 8.93219 15.3894C8.8744 15.3068 8.75882 15.0674 8.65975 14.8445C8.37079 14.1758 8.22218 13.9776 7.88369 13.7547C7.58647 13.5648 7.2067 13.5236 6.91774 13.6639C6.53797 13.8455 6.4389 14.3326 6.70309 14.6299C6.81042 14.7537 7.00856 14.8528 7.17368 14.8775C7.47915 14.9188 7.74334 14.6794 7.74334 14.3739C7.74334 14.1758 7.66903 14.0602 7.47089 13.9694C7.2067 13.8538 6.91774 13.9859 6.926 14.2418C6.926 14.3492 6.97553 14.4152 7.08286 14.4647C7.14891 14.4978 7.14891 14.4978 7.09937 14.4895C6.85995 14.44 6.80216 14.1428 6.99205 13.9529C7.22321 13.7217 7.71031 13.8208 7.87543 14.1428C7.94148 14.2749 7.94973 14.539 7.89194 14.7042C7.75159 15.0674 7.35531 15.2573 6.95077 15.15C6.67832 15.0757 6.56274 15.0014 6.2325 14.6629C5.65459 14.0685 5.43167 13.9529 4.60608 13.829L4.44922 13.8043L4.62259 13.6391Z" fill="#FF007A"/>
<path fill-rule="evenodd" clip-rule="evenodd" d="M0.281069 0.355005C2.2047 2.69143 5.16858 6.32405 5.31719 6.52219C5.44103 6.68731 5.39149 6.84417 5.18509 6.95975C5.06951 7.0258 4.83009 7.09185 4.71451 7.09185C4.58241 7.09185 4.42555 7.0258 4.31822 6.91847C4.24392 6.84417 3.92194 6.37358 3.19541 5.24252C2.64227 4.37565 2.17168 3.65738 2.16342 3.64912C2.1304 3.63261 2.1304 3.63261 3.13762 5.4324C3.77333 6.56347 3.97973 6.96801 3.97973 7.01754C3.97973 7.12487 3.9467 7.18266 3.81461 7.33127C3.5917 7.57895 3.49263 7.85965 3.41832 8.44582C3.33576 9.09804 3.11285 9.56037 2.47715 10.3447C2.10563 10.807 2.04784 10.8896 1.95702 11.0795C1.84144 11.3106 1.80842 11.4427 1.7919 11.7399C1.77539 12.0537 1.80842 12.2518 1.89923 12.549C1.98179 12.8132 2.07261 12.9866 2.29552 13.3251C2.4854 13.6223 2.60099 13.8452 2.60099 13.9278C2.60099 13.9938 2.6175 13.9938 2.91471 13.9278C3.62472 13.7626 4.21089 13.4819 4.53287 13.1352C4.73102 12.9205 4.78055 12.805 4.78055 12.5077C4.78055 12.3179 4.7723 12.2766 4.72276 12.161C4.6402 11.9794 4.48334 11.8308 4.14485 11.5996C3.69903 11.2941 3.50914 11.0464 3.4596 10.7162C3.41832 10.4355 3.46786 10.2456 3.71554 9.72549C3.97147 9.18886 4.03752 8.96594 4.0788 8.42105C4.10357 8.0743 4.14485 7.93395 4.24392 7.82663C4.35124 7.71104 4.44206 7.66976 4.69799 7.63674C5.11905 7.57895 5.39149 7.47162 5.60615 7.26522C5.79603 7.09185 5.87859 6.91847 5.88685 6.66254L5.8951 6.47265L5.78778 6.35707C5.39975 5.91125 0.025135 0 0.000367228 0C-0.00788871 0 0.124206 0.156863 0.281069 0.355005ZM2.81564 12.0949C2.90646 11.9381 2.85692 11.7399 2.70831 11.6409C2.56796 11.5501 2.35331 11.5913 2.35331 11.7152C2.35331 11.7482 2.36982 11.7812 2.41936 11.7977C2.49366 11.839 2.50191 11.8803 2.44412 11.9711C2.38633 12.0619 2.38633 12.1445 2.46064 12.2023C2.57622 12.2931 2.73308 12.2436 2.81564 12.0949Z" fill="#FF007A"/>
<path fill-rule="evenodd" clip-rule="evenodd" d="M6.15796 7.7526C5.95982 7.81039 5.76994 8.02505 5.71214 8.2397C5.67912 8.3718 5.69563 8.61122 5.75342 8.68552C5.84424 8.80111 5.9268 8.83413 6.15796 8.83413C6.61204 8.83413 7.00007 8.63599 7.04135 8.39657C7.08263 8.19842 6.90925 7.92598 6.66983 7.80214C6.54599 7.73609 6.29006 7.71132 6.15796 7.7526ZM6.68634 8.1654C6.75239 8.06633 6.72762 7.959 6.60378 7.8847C6.38087 7.74435 6.04238 7.85993 6.04238 8.07458C6.04238 8.18191 6.21576 8.29749 6.38087 8.29749C6.4882 8.29749 6.63681 8.23145 6.68634 8.1654Z" fill="#FF007A"/>
</g>
<defs>
<clipPath id="clip0_7003_17597">
<rect width="13.8947" height="16" fill="white"/>
</clipPath>
</defs>
</svg>
