<svg width="64" height="64" viewBox="0 0 64 64" fill="none" xmlns="http://www.w3.org/2000/svg">
<path d="M64 32C64 49.6731 49.6731 64 32 64C14.3269 64 0 49.6731 0 32C0 14.3269 14.3269 0 32 0C49.6731 0 64 14.3269 64 32ZM3.2 32C3.2 47.9058 16.0942 60.8 32 60.8C47.9058 60.8 60.8 47.9058 60.8 32C60.8 16.0942 47.9058 3.2 32 3.2C16.0942 3.2 3.2 16.0942 3.2 32Z" fill="#1DB954"/>
<g clip-path="url(#clip0_3231_18253)">
<path d="M44 21L29.2434 42.0777C29.0487 42.3575 28.7903 42.5869 28.4895 42.7472C28.1887 42.9075 27.8541 42.9941 27.5133 42.9997C27.1725 43.0053 26.8352 42.9299 26.5293 42.7796C26.2234 42.6294 25.9575 42.4086 25.7537 42.1354L22 37.1317" stroke="#1DB954" stroke-width="3" stroke-linecap="round" stroke-linejoin="round"/>
</g>
<defs>
<clipPath id="clip0_3231_18253">
<rect width="26" height="26" fill="white" transform="translate(20 19)"/>
</clipPath>
</defs>
</svg>
